<?xml version="1.0" encoding="UTF-8"?>
<svg width="60px" height="60px" viewBox="0 0 60 60" version="1.1" xmlns="http://www.w3.org/2000/svg" xmlns:xlink="http://www.w3.org/1999/xlink">
    <!-- Generator: sketchtool 51.3 (57544) - http://www.bohemiancoding.com/sketch -->
    <title>EF151030-793F-48CB-81C5-FA1F29177A48</title>
    <desc>Created with sketchtool.</desc>
    <defs></defs>
    <g id="App" stroke="none" stroke-width="1" fill="none" fill-rule="evenodd">
        <g id="Mobile---v3---1---Escenario-4" transform="translate(-158.000000, -164.000000)" fill="#FFE143">
            <g id="Mensaje" transform="translate(20.000000, 114.000000)">
                <path d="M168,50 C184.5625,50 198,63.4375 198,80 C198,96.5625 184.5625,110 168,110 C151.4375,110 138,96.5625 138,80 C138,63.4375 151.4375,50 168,50 Z M173,98.7109375 L173,91.2890625 C173,90.5859375 172.453125,90 171.789062,90 L164.289062,90 C163.585937,90 163,90.5859375 163,91.2890625 L163,98.7109375 C163,99.4140625 163.585937,100 164.289062,100 L171.789062,100 C172.453125,100 173,99.4140625 173,98.7109375 Z M172.921875,85.2734375 L173.625,61.015625 C173.625,60.7421875 173.507812,60.46875 173.234375,60.3125 C173,60.1171875 172.648438,60 172.296875,60 L163.703125,60 C163.351562,60 163,60.1171875 162.765625,60.3125 C162.492188,60.46875 162.375,60.7421875 162.375,61.015625 L163.039062,85.2734375 C163.039062,85.8203125 163.625,86.25 164.367188,86.25 L171.59375,86.25 C172.296875,86.25 172.882812,85.8203125 172.921875,85.2734375 Z" id="ïª"></path>
            </g>
        </g>
    </g>
</svg>