<?xml version="1.0" encoding="iso-8859-1"?>
<!-- Generator: Adobe Illustrator 22.0.1, SVG Export Plug-In . SVG Version: 6.00 Build 0)  -->
<svg version="1.1" id="Layer_1" xmlns="http://www.w3.org/2000/svg" xmlns:xlink="http://www.w3.org/1999/xlink" x="0px" y="0px"
	 width="246px" height="38px" viewBox="0 0 246 38" enable-background="new 0 0 246 38" xml:space="preserve">
<g>
	<path fill="#02B139" d="M64,34.7H43.3c-2.2,0-4-1.8-4-4V15.8c0-2.2,1.8-4,4-4H64c2.2,0,4,1.8,4,4v14.9C68,32.9,66.2,34.7,64,34.7z
		 M43.3,13.8c-1.1,0-2,0.9-2,2v14.9c0,1.1,0.9,2,2,2H64c1.1,0,2-0.9,2-2V15.8c0-1.1-0.9-2-2-2H43.3z"/>
	<path fill="#02B139" d="M61.3,12.8h-2V8.3c0-3.1-2.5-5.6-5.6-5.6s-5.6,2.5-5.6,5.6v4.5h-2V8.3c0-4.2,3.4-7.6,7.6-7.6
		c4.2,0,7.6,3.4,7.6,7.6V12.8z"/>
	<g>
		<path fill="#02B139" d="M53.7,21.9c-0.6,0-1-0.4-1-1v-3.7c0-0.6,0.4-1,1-1s1,0.4,1,1v3.7C54.7,21.4,54.2,21.9,53.7,21.9z"/>
		<path fill="#02B139" d="M53.7,26.3c-1.8,0-3.2-1.4-3.2-3.2s1.4-3.2,3.2-3.2s3.2,1.4,3.2,3.2S55.5,26.3,53.7,26.3z M53.7,21.8
			c-0.7,0-1.2,0.5-1.2,1.2s0.5,1.2,1.2,1.2s1.2-0.5,1.2-1.2S54.4,21.8,53.7,21.8z"/>
	</g>
	<rect x="40.3" y="29.1" fill="#02B139" width="26.7" height="2"/>
</g>
<g>
	<g>
		<path fill="#02B139" d="M78.5,38c-0.4,0-0.7-0.2-0.9-0.5l-2.5-4.3l-5,0c-0.4,0-0.7-0.2-0.9-0.5c-0.2-0.3-0.2-0.7,0-1l4.4-7.5
			c0.2-0.3,0.4-0.4,0.7-0.5c0.3,0,0.6,0,0.8,0.2c2.3,2.1,5.2,3.3,8.3,3.5c0.3,0,0.7,0.2,0.8,0.5c0.2,0.3,0.2,0.7,0,1l-5,8.6
			C79.2,37.8,78.8,38,78.5,38C78.5,38,78.5,38,78.5,38z M71.9,31.2l3.8,0c0.4,0,0.7,0.2,0.9,0.5l1.9,3.3l3.3-5.8c-2.6-0.4-5-1.4-7-3
			L71.9,31.2z"/>
		<path fill="#02B139" d="M89.9,38C89.9,38,89.9,38,89.9,38c-0.4,0-0.7-0.2-0.9-0.5l-5-8.6c-0.2-0.3-0.2-0.7,0-1
			c0.2-0.3,0.5-0.5,0.8-0.5c3.1-0.2,6-1.4,8.3-3.5c0.2-0.2,0.5-0.3,0.8-0.2c0.3,0,0.6,0.2,0.7,0.5l4.4,7.5c0.2,0.3,0.2,0.7,0,1
			c-0.2,0.3-0.5,0.5-0.9,0.5l-5,0l-2.5,4.3C90.6,37.8,90.3,38,89.9,38z M86.6,29.2l3.3,5.8l1.9-3.3c0.2-0.3,0.5-0.5,0.9-0.5l3.8,0
			l-2.9-5C91.5,27.8,89.1,28.8,86.6,29.2z"/>
	</g>
	<path fill="#02B139" d="M84.2,29.4c-8.1,0-14.7-6.6-14.7-14.7C69.5,6.6,76.1,0,84.2,0s14.7,6.6,14.7,14.7
		C98.9,22.8,92.3,29.4,84.2,29.4z M84.2,2c-7,0-12.7,5.7-12.7,12.7s5.7,12.7,12.7,12.7s12.7-5.7,12.7-12.7S91.2,2,84.2,2z"/>
	<path fill="#02B139" d="M88.4,22.2c-0.2,0-0.3,0-0.5-0.1l-3.8-2l-3.8,2c-0.3,0.2-0.7,0.1-1.1-0.1c-0.3-0.2-0.5-0.6-0.4-1l0.7-4.2
		l-3.1-3c-0.3-0.3-0.4-0.7-0.3-1c0.1-0.4,0.4-0.6,0.8-0.7l4.2-0.6l1.9-3.8c0.3-0.7,1.5-0.7,1.8,0l1.9,3.8l4.2,0.6
		c0.4,0.1,0.7,0.3,0.8,0.7c0.1,0.4,0,0.8-0.3,1l-3.1,3l0.7,4.2c0.1,0.4-0.1,0.8-0.4,1C88.8,22.2,88.6,22.2,88.4,22.2z M84.2,18
		c0.2,0,0.3,0,0.5,0.1l2.4,1.3l-0.5-2.7c-0.1-0.3,0.1-0.7,0.3-0.9l2-1.9l-2.7-0.4c-0.3,0-0.6-0.3-0.8-0.5l-1.2-2.5L83,12.9
		c-0.1,0.3-0.4,0.5-0.8,0.5l-2.7,0.4l2,1.9c0.2,0.2,0.3,0.6,0.3,0.9l-0.5,2.7l2.4-1.3C83.9,18,84,18,84.2,18z"/>
</g>
<g>
	<path fill="#02B139" d="M23.9,30.8c-0.6,0-1-0.4-1-1V18.7c0-0.6,0.4-1,1-1H34c0.6,0,1,0.4,1,1s-0.4,1-1,1h-9.1v10.1
		C24.9,30.3,24.4,30.8,23.9,30.8z"/>
	<path fill="#02B139" d="M37,30.8h-3c-0.6,0-1-0.4-1-1s0.4-1,1-1h3c0.6,0,1,0.4,1,1S37.6,30.8,37,30.8z"/>
	<path fill="#02B139" d="M37,30.8c-0.6,0-1-0.4-1-1v-7.1c0-0.3-0.2-0.8-0.4-1l-2.3-2.3c-0.4-0.4-0.4-1,0-1.4c0.4-0.4,1-0.4,1.4,0
		l2.3,2.3c0.6,0.6,1,1.6,1,2.4v7.1C38,30.3,37.6,30.8,37,30.8z"/>
	<path fill="#02B139" d="M34,19.7c-0.4,0-0.8-0.3-0.9-0.7l-2.8-7.9c0-0.1-0.3-0.3-0.4-0.3h-6c-0.6,0-1-0.4-1-1s0.4-1,1-1h6
		c1,0,2,0.7,2.3,1.6l2.8,7.9c0.2,0.5-0.1,1.1-0.6,1.3C34.2,19.7,34.1,19.7,34,19.7z"/>
	<path fill="#02B139" d="M34,19.7H23.9c-0.6,0-1-0.4-1-1V9.9c0-0.6,0.4-1,1-1s1,0.4,1,1v7.8H34c0.6,0,1,0.4,1,1S34.5,19.7,34,19.7z"
		/>
	<path fill="#02B139" d="M26.9,30.8H12c-0.6,0-1-0.4-1-1s0.4-1,1-1h15c0.6,0,1,0.4,1,1S27.5,30.8,26.9,30.8z"/>
	<path fill="#02B139" d="M4.9,30.8H3.1c-1.7,0-3.1-1.4-3.1-3.1V8.2c0-1.7,1.4-3.1,3.1-3.1h18.6c1.7,0,3.1,1.4,3.1,3.1v4.4
		c0,0.6-0.4,1-1,1s-1-0.4-1-1V8.2c0-0.6-0.5-1.1-1.1-1.1H3.1C2.5,7.1,2,7.6,2,8.2v19.5c0,0.6,0.5,1.1,1.1,1.1h1.8c0.6,0,1,0.4,1,1
		S5.5,30.8,4.9,30.8z"/>
	<path fill="#02B139" d="M30.4,34.3c-2.5,0-4.5-2-4.5-4.5s2-4.5,4.5-4.5c2.5,0,4.5,2,4.5,4.5S32.9,34.3,30.4,34.3z M30.4,27.3
		c-1.4,0-2.5,1.1-2.5,2.5s1.1,2.5,2.5,2.5s2.5-1.1,2.5-2.5S31.8,27.3,30.4,27.3z"/>
	<path fill="#02B139" d="M27,22.8c-0.7,0-1.4-0.6-1.4-1.4s0.6-1.4,1.4-1.4s1.4,0.6,1.4,1.4S27.7,22.8,27,22.8z M27,20.8
		c-0.4,0-0.6,0.3-0.6,0.6s0.3,0.6,0.6,0.6s0.6-0.3,0.6-0.6S27.3,20.8,27,20.8z"/>
	<path fill="#02B139" d="M28.8,19.7c-0.3,0-0.5-0.1-0.7-0.3c-0.4-0.4-0.4-1,0-1.4l1.9-1.9c0.4-0.4,1-0.4,1.4,0c0.4,0.4,0.4,1,0,1.4
		l-1.9,1.9C29.3,19.6,29.1,19.7,28.8,19.7z"/>
	<path fill="#02B139" d="M23.9,22.8H1c-0.6,0-1-0.4-1-1s0.4-1,1-1h22.9c0.6,0,1,0.4,1,1S24.4,22.8,23.9,22.8z"/>
	<path fill="#02B139" d="M30.4,31.1c-0.7,0-1.4-0.6-1.4-1.4s0.6-1.4,1.4-1.4s1.4,0.6,1.4,1.4S31.2,31.1,30.4,31.1z M30.4,29.1
		c-0.4,0-0.6,0.3-0.6,0.6s0.3,0.6,0.6,0.6s0.6-0.3,0.6-0.6S30.8,29.1,30.4,29.1z"/>
	<g>
		<circle fill="#EEF1F2" cx="8.4" cy="29.8" r="3.5"/>
		<path fill="#02B139" d="M8.4,34.3c-2.5,0-4.5-2-4.5-4.5s2-4.5,4.5-4.5c2.5,0,4.5,2,4.5,4.5S10.9,34.3,8.4,34.3z M8.4,27.3
			c-1.4,0-2.5,1.1-2.5,2.5s1.1,2.5,2.5,2.5s2.5-1.1,2.5-2.5S9.8,27.3,8.4,27.3z"/>
	</g>
	<path fill="#02B139" d="M8.4,31.1c-0.7,0-1.4-0.6-1.4-1.4s0.6-1.4,1.4-1.4s1.4,0.6,1.4,1.4S9.2,31.1,8.4,31.1z M8.4,29.1
		c-0.4,0-0.6,0.3-0.6,0.6s0.3,0.6,0.6,0.6c0.4,0,0.6-0.3,0.6-0.6S8.8,29.1,8.4,29.1z"/>
</g>
<g>
	<g>
		<line fill="#FFFFFF" x1="134" y1="34.6" x2="103" y2="34.6"/>
		<path fill="#02B139" d="M134,35.6h-31c-0.6,0-1-0.4-1-1s0.4-1,1-1h31c0.6,0,1,0.4,1,1S134.5,35.6,134,35.6z"/>
	</g>
	<path fill="#02B139" d="M128.1,4.8c0.8,0,1.6,0.5,1.9,1.2l4.2,9.3c0.6,1.2,0.5,2.7-0.2,3.8c0,0,0,0,0,0c-0.6,1-1.7,1.7-2.9,1.8
		h-0.3c-1,0-2-0.4-2.8-1c-0.4-0.3-0.8-0.5-1.3-0.5c-0.5,0-0.9,0.2-1.3,0.5c-0.8,0.7-1.8,1-2.8,1c-1,0-1.9-0.3-2.7-1
		c-0.4-0.3-0.8-0.5-1.3-0.5s-0.9,0.2-1.3,0.5c-0.8,0.6-1.7,1-2.7,1c-1,0-2-0.4-2.8-1c-0.4-0.3-0.8-0.5-1.3-0.5
		c-0.5,0-0.9,0.2-1.3,0.5c-0.8,0.7-1.7,1-2.7,1h-0.3c-1.2-0.1-2.4-0.8-3-1.9c-0.7-1.2-0.8-2.6-0.2-3.8l4.2-9.3
		c0.3-0.7,1.1-1.2,1.9-1.2H128.1 M128.1,2.8H109c-1.6,0-3.1,0.9-3.7,2.4l-4.2,9.3c-0.8,1.8-0.7,4,0.3,5.7c1,1.7,2.7,2.8,4.7,2.9
		c0.1,0,0.3,0,0.4,0c1.5,0,2.9-0.5,4-1.5c1.2,1,2.6,1.5,4.1,1.5c1.4,0,2.8-0.5,4-1.5c1.2,1,2.6,1.5,4,1.5c1.4,0,2.9-0.5,4.1-1.5
		c1.1,0.9,2.5,1.5,4,1.5c0.1,0,0.3,0,0.4,0c1.9-0.1,3.7-1.2,4.6-2.9c1-1.7,1.1-3.8,0.3-5.7l-4.2-9.3C131.1,3.7,129.7,2.8,128.1,2.8
		L128.1,2.8z"/>
	<g>
		<line fill="#FFFFFF" x1="106.6" y1="23.1" x2="106.6" y2="34.6"/>
		<path fill="#02B139" d="M106.6,35.6L106.6,35.6c-0.6,0-1-0.4-1-1l0-11.6c0-0.6,0.4-1,1-1l0,0c0.6,0,1,0.4,1,1l0,11.6
			C107.6,35.2,107.2,35.6,106.6,35.6z"/>
	</g>
	<path fill="#02B139" d="M121.3,35.6c-0.6,0-1-0.4-1-1v-7.3h-3.5v7.3c0,0.6-0.4,1-1,1s-1-0.4-1-1v-8.3c0-0.6,0.4-1,1-1h5.5
		c0.6,0,1,0.4,1,1v8.3C122.3,35.2,121.8,35.6,121.3,35.6z"/>
	<g>
		<line fill="#FFFFFF" x1="130.4" y1="23.1" x2="130.4" y2="34.6"/>
		<path fill="#02B139" d="M130.4,35.6c-0.6,0-1-0.4-1-1V23.1c0-0.6,0.4-1,1-1s1,0.4,1,1v11.6C131.4,35.2,130.9,35.6,130.4,35.6z"/>
	</g>
</g>
<g>
	<g opacity="0.8" enable-background="new    ">
		<g>
			<g>
				<path d="M163.8,21.7h-19c-2.1,0-3.8-1.7-3.8-3.8v-12c0-2.1,1.7-3.8,3.8-3.8h19c2.1,0,3.8,1.7,3.8,3.8v12
					C167.5,20,165.9,21.7,163.8,21.7z M144.8,3.7c-1.2,0-2.2,1-2.2,2.2v12c0,1.2,1,2.2,2.2,2.2h19c1.2,0,2.2-1,2.2-2.2v-12
					c0-1.2-1-2.2-2.2-2.2H144.8z"/>
				<path d="M167.5,11.7H141V6.2h26.5V11.7z M142.5,10.2H166V7.7h-23.5V10.2z"/>
				<path d="M148.8,16.9h-4c-0.6,0-1-0.4-1-1c0-0.6,0.4-1,1-1h4c0.6,0,1,0.4,1,1C149.8,16.5,149.3,16.9,148.8,16.9z"/>
			</g>
		</g>
	</g>
</g>
<g>
	<g opacity="0.8" enable-background="new    ">
		<g>
			<g>
				<path d="M182.8,27.6c-7,0-12.8-5.7-12.8-12.7c0-7,5.7-12.7,12.8-12.7s12.8,5.7,12.8,12.7C195.5,21.9,189.8,27.6,182.8,27.6z
					 M182.8,3.7c-6.2,0-11.2,5-11.2,11.2c0,6.2,5,11.2,11.2,11.2s11.2-5,11.2-11.2C194,8.7,189,3.7,182.8,3.7z"/>
			</g>
			<g>
				<g>
					<path d="M182.4,20.5V19c-1.9-0.3-2.9-1.7-3-2.9l1.7-0.4c0.1,0.9,0.7,1.7,2,1.7c0.9,0,1.4-0.4,1.4-1.1c0-0.5-0.4-0.8-1.1-1
						l-1.3-0.3c-1.5-0.3-2.5-1.3-2.5-2.6c0-1.5,1.1-2.6,2.6-2.8V8.2h1.4v1.5c1.6,0.3,2.3,1.4,2.5,2.4l-1.7,0.5
						c-0.1-0.5-0.4-1.3-1.6-1.3c-0.9,0-1.4,0.5-1.4,1.1c0,0.4,0.3,0.8,1,0.9l1.3,0.3c1.8,0.4,2.6,1.4,2.6,2.7c0,1.3-0.9,2.5-2.6,2.7
						v1.5H182.4z"/>
				</g>
			</g>
		</g>
	</g>
</g>
</svg>
