<?xml version="1.0" encoding="UTF-8"?>
<svg width="256px" height="38px" viewBox="0 0 256 38" version="1.1" xmlns="http://www.w3.org/2000/svg" xmlns:xlink="http://www.w3.org/1999/xlink">
    <!-- Generator: Sketch 51.2 (57519) - http://www.bohemiancoding.com/sketch -->
    <title>Untitled</title>
    <desc>Created with Sketch.</desc>
    <defs>
        <path d="M10.7142857,5.25 L10.0714286,5.25 L10.0714286,3.5625 C10.0714286,1.5984375 8.24464286,0 6,0 C3.75535714,0 1.92857143,1.5984375 1.92857143,3.5625 L1.92857143,5.25 L1.28571429,5.25 C0.575892857,5.25 0,5.75390625 0,6.375 L0,10.875 C0,11.4960938 0.575892857,12 1.28571429,12 L10.7142857,12 C11.4241071,12 12,11.4960938 12,10.875 L12,6.375 C12,5.75390625 11.4241071,5.25 10.7142857,5.25 Z M7.92857143,5.25 L4.07142857,5.25 L4.07142857,3.5625 C4.07142857,2.63203125 4.93660714,1.875 6,1.875 C7.06339286,1.875 7.92857143,2.63203125 7.92857143,3.5625 L7.92857143,5.25 Z" id="path-1"></path>
    </defs>
    <g id="Page-1" stroke="none" stroke-width="1" fill="none" fill-rule="evenodd">
        <g id="iconos-detalle" fill-rule="nonzero">
            <g id="Group" transform="translate(39.000000, 0.000000)" fill="#02B139">
                <path d="M25,34.7 L4.3,34.7 C2.1,34.7 0.3,32.9 0.3,30.7 L0.3,15.8 C0.3,13.6 2.1,11.8 4.3,11.8 L25,11.8 C27.2,11.8 29,13.6 29,15.8 L29,30.7 C29,32.9 27.2,34.7 25,34.7 Z M4.3,13.8 C3.2,13.8 2.3,14.7 2.3,15.8 L2.3,30.7 C2.3,31.8 3.2,32.7 4.3,32.7 L25,32.7 C26.1,32.7 27,31.8 27,30.7 L27,15.8 C27,14.7 26.1,13.8 25,13.8 L4.3,13.8 Z" id="Shape"></path>
                <path d="M22.3,12.8 L20.3,12.8 L20.3,8.3 C20.3,5.2 17.8,2.7 14.7,2.7 C11.6,2.7 9.1,5.2 9.1,8.3 L9.1,12.8 L7.1,12.8 L7.1,8.3 C7.1,4.1 10.5,0.7 14.7,0.7 C18.9,0.7 22.3,4.1 22.3,8.3 L22.3,12.8 Z" id="Shape"></path>
                <g transform="translate(11.000000, 16.000000)" id="Shape">
                    <path d="M3.7,5.9 C3.1,5.9 2.7,5.5 2.7,4.9 L2.7,1.2 C2.7,0.6 3.1,0.2 3.7,0.2 C4.3,0.2 4.7,0.6 4.7,1.2 L4.7,4.9 C4.7,5.4 4.2,5.9 3.7,5.9 Z"></path>
                    <path d="M3.7,10.3 C1.9,10.3 0.5,8.9 0.5,7.1 C0.5,5.3 1.9,3.9 3.7,3.9 C5.5,3.9 6.9,5.3 6.9,7.1 C6.9,8.9 5.5,10.3 3.7,10.3 Z M3.7,5.8 C3,5.8 2.5,6.3 2.5,7 C2.5,7.7 3,8.2 3.7,8.2 C4.4,8.2 4.9,7.7 4.9,7 C4.9,6.3 4.4,5.8 3.7,5.8 Z"></path>
                </g>
                <rect id="Rectangle-path" x="1.3" y="29.1" width="26.7" height="2"></rect>
            </g>
            <g id="Group" transform="translate(69.000000, 0.000000)" fill="#02B139">
                <g transform="translate(0.000000, 23.000000)" id="Shape">
                    <path d="M9.5,15 C9.1,15 8.8,14.8 8.6,14.5 L6.1,10.2 L1.1,10.2 C0.7,10.2 0.4,10 0.2,9.7 C-1.42108547e-14,9.4 -1.42108547e-14,9 0.2,8.7 L4.6,1.2 C4.8,0.9 5,0.8 5.3,0.7 C5.6,0.7 5.9,0.7 6.1,0.9 C8.4,3 11.3,4.2 14.4,4.4 C14.7,4.4 15.1,4.6 15.2,4.9 C15.4,5.2 15.4,5.6 15.2,5.9 L10.2,14.5 C10.2,14.8 9.8,15 9.5,15 C9.5,15 9.5,15 9.5,15 Z M2.9,8.2 L6.7,8.2 C7.1,8.2 7.4,8.4 7.6,8.7 L9.5,12 L12.8,6.2 C10.2,5.8 7.8,4.8 5.8,3.2 L2.9,8.2 Z"></path>
                    <path d="M20.9,15 C20.9,15 20.9,15 20.9,15 C20.5,15 20.2,14.8 20,14.5 L15,5.9 C14.8,5.6 14.8,5.2 15,4.9 C15.2,4.6 15.5,4.4 15.8,4.4 C18.9,4.2 21.8,3 24.1,0.9 C24.3,0.7 24.6,0.6 24.9,0.7 C25.2,0.7 25.5,0.9 25.6,1.2 L30,8.7 C30.2,9 30.2,9.4 30,9.7 C29.8,10 29.5,10.2 29.1,10.2 L24.1,10.2 L21.6,14.5 C21.6,14.8 21.3,15 20.9,15 Z M17.6,6.2 L20.9,12 L22.8,8.7 C23,8.4 23.3,8.2 23.7,8.2 L27.5,8.2 L24.6,3.2 C22.5,4.8 20.1,5.8 17.6,6.2 Z"></path>
                </g>
                <path d="M15.2,29.4 C7.1,29.4 0.5,22.8 0.5,14.7 C0.5,6.6 7.1,0 15.2,0 C23.3,0 29.9,6.6 29.9,14.7 C29.9,22.8 23.3,29.4 15.2,29.4 Z M15.2,2 C8.2,2 2.5,7.7 2.5,14.7 C2.5,21.7 8.2,27.4 15.2,27.4 C22.2,27.4 27.9,21.7 27.9,14.7 C27.9,7.7 22.2,2 15.2,2 Z" id="Shape"></path>
                <path d="M19.4,22.2 C19.2,22.2 19.1,22.2 18.9,22.1 L15.1,20.1 L11.3,22.1 C11,22.3 10.6,22.2 10.2,22 C9.9,21.8 9.7,21.4 9.8,21 L10.5,16.8 L7.4,13.8 C7.1,13.5 7,13.1 7.1,12.8 C7.2,12.4 7.5,12.2 7.9,12.1 L12.1,11.5 L14,7.7 C14.3,7 15.5,7 15.8,7.7 L17.7,11.5 L21.9,12.1 C22.3,12.2 22.6,12.4 22.7,12.8 C22.8,13.2 22.7,13.6 22.4,13.8 L19.3,16.8 L20,21 C20.1,21.4 19.9,21.8 19.6,22 C19.8,22.2 19.6,22.2 19.4,22.2 Z M15.2,18 C15.4,18 15.5,18 15.7,18.1 L18.1,19.4 L17.6,16.7 C17.5,16.4 17.7,16 17.9,15.8 L19.9,13.9 L17.2,13.5 C16.9,13.5 16.6,13.2 16.4,13 L15.2,10.5 L14,12.9 C13.9,13.2 13.6,13.4 13.2,13.4 L10.5,13.8 L12.5,15.7 C12.7,15.9 12.8,16.3 12.8,16.6 L12.3,19.3 L14.7,18 C14.9,18 15,18 15.2,18 Z" id="Shape"></path>
            </g>
            <g id="Group" transform="translate(0.000000, 5.000000)">
                <path d="M23.9,25.8 C23.3,25.8 22.9,25.4 22.9,24.8 L22.9,13.7 C22.9,13.1 23.3,12.7 23.9,12.7 L34,12.7 C34.6,12.7 35,13.1 35,13.7 C35,14.3 34.6,14.7 34,14.7 L24.9,14.7 L24.9,24.8 C24.9,25.3 24.4,25.8 23.9,25.8 Z" id="Shape" fill="#02B139"></path>
                <path d="M37,25.8 L34,25.8 C33.4,25.8 33,25.4 33,24.8 C33,24.2 33.4,23.8 34,23.8 L37,23.8 C37.6,23.8 38,24.2 38,24.8 C38,25.4 37.6,25.8 37,25.8 Z" id="Shape" fill="#02B139"></path>
                <path d="M37,25.8 C36.4,25.8 36,25.4 36,24.8 L36,17.7 C36,17.4 35.8,16.9 35.6,16.7 L33.3,14.4 C32.9,14 32.9,13.4 33.3,13 C33.7,12.6 34.3,12.6 34.7,13 L37,15.3 C37.6,15.9 38,16.9 38,17.7 L38,24.8 C38,25.3 37.6,25.8 37,25.8 Z" id="Shape" fill="#02B139"></path>
                <path d="M34,14.7 C33.6,14.7 33.2,14.4 33.1,14 L30.3,6.1 C30.3,6 30,5.8 29.9,5.8 L23.9,5.8 C23.3,5.8 22.9,5.4 22.9,4.8 C22.9,4.2 23.3,3.8 23.9,3.8 L29.9,3.8 C30.9,3.8 31.9,4.5 32.2,5.4 L35,13.3 C35.2,13.8 34.9,14.4 34.4,14.6 C34.2,14.7 34.1,14.7 34,14.7 Z" id="Shape" fill="#02B139"></path>
                <path d="M34,14.7 L23.9,14.7 C23.3,14.7 22.9,14.3 22.9,13.7 L22.9,4.9 C22.9,4.3 23.3,3.9 23.9,3.9 C24.5,3.9 24.9,4.3 24.9,4.9 L24.9,12.7 L34,12.7 C34.6,12.7 35,13.1 35,13.7 C35,14.3 34.5,14.7 34,14.7 Z" id="Shape" fill="#02B139"></path>
                <path d="M26.7129412,25.8 L11.9882353,25.8 C11.3952941,25.8 11,25.4 11,24.8 C11,24.2 11.3952941,23.8 11.9882353,23.8 L26.8117647,23.8 C27.4047059,23.8 27.8,24.2 27.8,24.8 C27.8,25.4 27.3058824,25.8 26.7129412,25.8 Z" id="Shape" fill="#02B139"></path>
                <path d="M4.9,25.8 L3.1,25.8 C1.4,25.8 0,24.4 0,22.7 L0,3.2 C0,1.5 1.4,0.1 3.1,0.1 L21.7,0.1 C23.4,0.1 24.8,1.5 24.8,3.2 L24.8,7.6 C24.8,8.2 24.4,8.6 23.8,8.6 C23.2,8.6 22.8,8.2 22.8,7.6 L22.8,3.2 C22.8,2.6 22.3,2.1 21.7,2.1 L3.1,2.1 C2.5,2.1 2,2.6 2,3.2 L2,22.7 C2,23.3 2.5,23.8 3.1,23.8 L4.9,23.8 C5.5,23.8 5.9,24.2 5.9,24.8 C5.9,25.4 5.5,25.8 4.9,25.8 Z" id="Shape" fill="#02B139"></path>
                <path d="M30.4,29.3 C27.9,29.3 25.9,27.3 25.9,24.8 C25.9,22.3 27.9,20.3 30.4,20.3 C32.9,20.3 34.9,22.3 34.9,24.8 C34.9,27.3 32.9,29.3 30.4,29.3 Z M30.4,22.3 C29,22.3 27.9,23.4 27.9,24.8 C27.9,26.2 29,27.3 30.4,27.3 C31.8,27.3 32.9,26.2 32.9,24.8 C32.9,23.4 31.8,22.3 30.4,22.3 Z" id="Shape" fill="#02B139"></path>
                <path d="M27,17.8 C26.3,17.8 25.6,17.2 25.6,16.4 C25.6,15.6 26.2,15 27,15 C27.8,15 28.4,15.6 28.4,16.4 C28.4,17.2 27.7,17.8 27,17.8 Z" id="Shape" fill="#02B139"></path>
                <path d="M28.8,14.7 C28.5,14.7 28.3,14.6 28.1,14.4 C27.7,14 27.7,13.4 28.1,13 L30,11.1 C30.4,10.7 31,10.7 31.4,11.1 C31.8,11.5 31.8,12.1 31.4,12.5 L29.5,14.4 C29.3,14.6 29.1,14.7 28.8,14.7 Z" id="Shape" fill="#02B139"></path>
                <path d="M23.9,17.8 L1,17.8 C0.4,17.8 0,17.4 0,16.8 C0,16.2 0.4,15.8 1,15.8 L23.9,15.8 C24.5,15.8 24.9,16.2 24.9,16.8 C24.9,17.4 24.4,17.8 23.9,17.8 Z" id="Shape" fill="#02B139"></path>
                <path d="M30.4,26.1 C29.7,26.1 29,25.5 29,24.7 C29,23.9 29.6,23.3 30.4,23.3 C31.2,23.3 31.8,23.9 31.8,24.7 C31.8,25.5 31.2,26.1 30.4,26.1 Z" id="Shape" fill="#02B139"></path>
                <g transform="translate(3.000000, 20.000000)">
                    <circle id="Oval" fill="#EEF1F2" cx="5.4" cy="4.8" r="3.5"></circle>
                    <path d="M5.4,9.3 C2.9,9.3 0.9,7.3 0.9,4.8 C0.9,2.3 2.9,0.3 5.4,0.3 C7.9,0.3 9.9,2.3 9.9,4.8 C9.9,7.3 7.9,9.3 5.4,9.3 Z M5.4,2.3 C4,2.3 2.9,3.4 2.9,4.8 C2.9,6.2 4,7.3 5.4,7.3 C6.8,7.3 7.9,6.2 7.9,4.8 C7.9,3.4 6.8,2.3 5.4,2.3 Z" id="Shape" fill="#02B139"></path>
                </g>
                <path d="M8.4,26.1 C7.7,26.1 7,25.5 7,24.7 C7,23.9 7.6,23.3 8.4,23.3 C9.2,23.3 9.8,23.9 9.8,24.7 C9.8,25.5 9.2,26.1 8.4,26.1 Z" id="Shape" fill="#02B139"></path>
            </g>
            <g id="Group" transform="translate(100.000000, 2.000000)">
                <g transform="translate(2.000000, 31.000000)" id="Shape">
                    <path d="M32,1.6 L1,1.6" fill="#FFFFFF"></path>
                    <path d="M32,2.6 L1,2.6 C0.4,2.6 0,2.2 0,1.6 C0,1 0.4,0.6 1,0.6 L32,0.6 C32.6,0.6 33,1 33,1.6 C33,2.2 32.5,2.6 32,2.6 Z" fill="#02B139"></path>
                </g>
                <path d="M28.1,2.8 C28.9,2.8 29.7,3.3 30,4 L34.2,13.3 C34.8,14.5 34.7,16 34,17.1 C34,17.1 34,17.1 34,17.1 C33.4,18.1 32.3,18.8 31.1,18.9 L30.8,18.9 C29.8,18.9 28.8,18.5 28,17.9 C27.6,17.6 27.2,17.4 26.7,17.4 C26.2,17.4 25.8,17.6 25.4,17.9 C24.6,18.6 23.6,18.9 22.6,18.9 C21.6,18.9 20.7,18.6 19.9,17.9 C19.5,17.6 19.1,17.4 18.6,17.4 C18.1,17.4 17.7,17.6 17.3,17.9 C16.5,18.5 15.6,18.9 14.6,18.9 C13.6,18.9 12.6,18.5 11.8,17.9 C11.4,17.6 11,17.4 10.5,17.4 C10,17.4 9.6,17.6 9.2,17.9 C8.4,18.6 7.5,18.9 6.5,18.9 L6.2,18.9 C5,18.8 3.8,18.1 3.2,17 C2.5,15.8 2.4,14.4 3,13.2 L7.2,3.9 C7.5,3.2 8.3,2.7 9.1,2.7 L28.1,2.7 L28.1,2.8 Z M28.1,0.8 L9,0.8 C7.4,0.8 5.9,1.7 5.3,3.2 L1.1,12.5 C0.3,14.3 0.4,16.5 1.4,18.2 C2.4,19.9 4.1,21 6.1,21.1 C6.2,21.1 6.4,21.1 6.5,21.1 C8,21.1 9.4,20.6 10.5,19.6 C11.7,20.6 13.1,21.1 14.6,21.1 C16,21.1 17.4,20.6 18.6,19.6 C19.8,20.6 21.2,21.1 22.6,21.1 C24,21.1 25.5,20.6 26.7,19.6 C27.8,20.5 29.2,21.1 30.7,21.1 C30.8,21.1 31,21.1 31.1,21.1 C33,21 34.8,19.9 35.7,18.2 C36.7,16.5 36.8,14.4 36,12.5 L31.8,3.2 C31.1,1.7 29.7,0.8 28.1,0.8 Z" id="Shape" fill="#02B139"></path>
                <g transform="translate(5.000000, 20.000000)" id="Shape">
                    <path d="M1.6,1.1 L1.6,12.6" fill="#FFFFFF"></path>
                    <path d="M1.6,13.6 C1,13.6 0.6,13.2 0.6,12.6 L0.6,1 C0.6,0.4 1,0 1.6,0 C2.2,0 2.6,0.4 2.6,1 L2.6,12.6 C2.6,13.2 2.2,13.6 1.6,13.6 Z" fill="#02B139"></path>
                </g>
                <path d="M21.3,33.6 C20.7,33.6 20.3,33.2 20.3,32.6 L20.3,25.3 L16.8,25.3 L16.8,32.6 C16.8,33.2 16.4,33.6 15.8,33.6 C15.2,33.6 14.8,33.2 14.8,32.6 L14.8,24.3 C14.8,23.7 15.2,23.3 15.8,23.3 L21.3,23.3 C21.9,23.3 22.3,23.7 22.3,24.3 L22.3,32.6 C22.3,33.2 21.8,33.6 21.3,33.6 Z" id="Shape" fill="#02B139"></path>
                <g transform="translate(29.000000, 20.000000)" id="Shape">
                    <path d="M1.4,1.1 L1.4,12.6" fill="#FFFFFF"></path>
                    <path d="M1.4,13.6 C0.8,13.6 0.4,13.2 0.4,12.6 L0.4,1.1 C0.4,0.5 0.8,0.1 1.4,0.1 C2,0.1 2.4,0.5 2.4,1.1 L2.4,12.7 C2.4,13.2 1.9,13.6 1.4,13.6 Z" fill="#02B139"></path>
                </g>
            </g>
            <g id="Group" opacity="0.8" transform="translate(141.000000, 2.000000)" fill="#000000">
                <g id="Shape">
                    <g>
                        <path d="M22.8,19.7 L3.8,19.7 C1.7,19.7 0,18 0,15.9 L0,3.9 C0,1.8 1.7,0.1 3.8,0.1 L22.8,0.1 C24.9,0.1 26.6,1.8 26.6,3.9 L26.6,15.9 C26.5,18 24.9,19.7 22.8,19.7 Z M3.8,1.7 C2.6,1.7 1.6,2.7 1.6,3.9 L1.6,15.9 C1.6,17.1 2.6,18.1 3.8,18.1 L22.8,18.1 C24,18.1 25,17.1 25,15.9 L25,3.9 C25,2.7 24,1.7 22.8,1.7 L3.8,1.7 Z"></path>
                        <path d="M26.5,9.7 L0,9.7 L0,4.2 L26.5,4.2 L26.5,9.7 Z M1.5,8.2 L25,8.2 L25,5.7 L1.5,5.7 L1.5,8.2 Z"></path>
                        <path d="M7.8,14.9 L3.8,14.9 C3.2,14.9 2.8,14.5 2.8,13.9 C2.8,13.3 3.2,12.9 3.8,12.9 L7.8,12.9 C8.4,12.9 8.8,13.3 8.8,13.9 C8.8,14.5 8.3,14.9 7.8,14.9 Z"></path>
                    </g>
                </g>
            </g>
            <g id="Group" opacity="0.8" transform="translate(170.000000, 2.000000)" fill="#000000">
                <g id="Shape">
                    <path d="M12.8,25.6 C5.8,25.6 0,19.9 0,12.9 C0,5.9 5.7,0.2 12.8,0.2 C19.9,0.2 25.6,5.9 25.6,12.9 C25.5,19.9 19.8,25.6 12.8,25.6 Z M12.8,1.7 C6.6,1.7 1.6,6.7 1.6,12.9 C1.6,19.1 6.6,24.1 12.8,24.1 C19,24.1 24,19.1 24,12.9 C24,6.7 19,1.7 12.8,1.7 Z"></path>
                    <path d="M12.4,18.5 L12.4,17 C10.5,16.7 9.5,15.3 9.4,14.1 L11.1,13.7 C11.2,14.6 11.8,15.4 13.1,15.4 C14,15.4 14.5,15 14.5,14.3 C14.5,13.8 14.1,13.5 13.4,13.3 L12.1,13 C10.6,12.7 9.6,11.7 9.6,10.4 C9.6,8.9 10.7,7.8 12.2,7.6 L12.2,6.2 L13.6,6.2 L13.6,7.7 C15.2,8 15.9,9.1 16.1,10.1 L14.4,10.6 C14.3,10.1 14,9.3 12.8,9.3 C11.9,9.3 11.4,9.8 11.4,10.4 C11.4,10.8 11.7,11.2 12.4,11.3 L13.7,11.6 C15.5,12 16.3,13 16.3,14.3 C16.3,15.6 15.4,16.8 13.7,17 L13.7,18.5 L12.4,18.5 Z"></path>
                </g>
            </g>
        </g>
        <g id="lock" transform="translate(198.000000, 1.000000)">
            <mask id="mask-2" fill="white">
                <use xlink:href="#path-1"></use>
            </mask>
            <use id="Mask" fill="#000000" fill-rule="nonzero" xlink:href="#path-1"></use>
            <g id="Color" mask="url(#mask-2)" fill="#737B7F">
                <g transform="translate(-0.867752, 0.000000)" id="Black">
                    <rect x="0" y="0" width="13" height="13"></rect>
                </g>
            </g>
        </g>
        <g id="Group-3" transform="translate(211.000000, 1.000000)" fill="#00AE37">
            <g id="Group-2" transform="translate(1.000000, 0.000000)">
                <path d="M2.3919911,6.16282208 L2.3919911,4.10316553 C2.3919911,2.99489331 3.35304828,2.09178218 4.53481646,2.09178218 L38.8200222,2.09178218 C40.0017904,2.09178218 40.9628476,2.99489331 40.9628476,4.10316553 L40.9628476,6.16282208 L2.3919911,6.16282208 Z M40.9628476,24.6967139 C40.9628476,25.8049861 40.0017904,26.7080973 38.8200222,26.7080973 L4.53481646,26.7080973 C3.35304828,26.7080973 2.3919911,25.8049861 2.3919911,24.6967139 L2.3919911,14.7735542 L40.9628476,14.7735542 L40.9628476,24.6967139 Z M2.3919911,12.7621708 L40.9628476,12.7621708 L40.9628476,8.17420542 L2.3919911,8.17420542 L2.3919911,12.7621708 Z M38.8200222,0.0803988395 L4.53481646,0.0803988395 C2.17128009,0.0803988395 0.24916574,1.8846097 0.24916574,4.10316553 L0.24916574,6.16282208 L0.24916574,14.7735542 L0.24916574,24.6967139 C0.24916574,26.9152697 2.17128009,28.7194806 4.53481646,28.7194806 L38.8200222,28.7194806 C41.1835586,28.7194806 43.105673,26.9152697 43.105673,24.6967139 L43.105673,14.7735542 L43.105673,6.16282208 L43.105673,4.10316553 C43.105673,1.8846097 41.1835586,0.0803988395 38.8200222,0.0803988395 Z" id="Fill-4"></path>
                <path d="M16,22 C16.5531915,22 17,21.5518617 17,21 C17,20.4481383 16.5531915,20 16,20 C15.4481383,20 15,20.4481383 15,21 C15,21.5518617 15.4481383,22 16,22" id="Fill-6"></path>
                <path d="M5.01030941,21.9592212 L11.8437795,21.9592212 C12.4362707,21.9592212 12.9151922,21.509677 12.9151922,20.9535295 C12.9151922,20.397382 12.4362707,19.9478378 11.8437795,19.9478378 L5.01030941,19.9478378 C4.41888961,19.9478378 3.93889673,20.397382 3.93889673,20.9535295 C3.93889673,21.509677 4.41888961,21.9592212 5.01030941,21.9592212" id="Fill-8"></path>
            </g>
        </g>
    </g>
</svg>