<?xml version="1.0" encoding="utf-8"?>
<!-- Generator: Adobe Illustrator 22.0.1, SVG Export Plug-In . SVG Version: 6.00 Build 0)  -->
<svg version="1.0" id="Capa_1" xmlns="http://www.w3.org/2000/svg" xmlns:xlink="http://www.w3.org/1999/xlink" x="0px" y="0px"
	 width="2276px" height="175px" viewBox="0 0 2276 175" style="enable-background:new 0 0 2276 175;" xml:space="preserve">
<style type="text/css">
	.st0{fill:#FDDD2E;}
	.st1{fill:#006DB7;}
	.st2{fill:#595B5F;}
	.st3{fill:#FFFFFF;}
	.st4{fill:#6CC24A;}
	.st5{fill:#0066AD;}
	.st6{fill:#FFDD30;}
	.st7{fill:#046DB5;}
	.st8{fill:none;stroke:#5B5D61;stroke-width:4;stroke-miterlimit:10;}
	.st9{fill:none;stroke:#5B5D61;stroke-width:5;stroke-linecap:round;stroke-miterlimit:10;}
	.st10{fill:none;stroke:#5B5D61;stroke-width:3;stroke-linecap:round;stroke-miterlimit:10;}
	.st11{fill:#EFF5F7;}
	.st12{fill:#006DBB;}
	.st13{fill:#006CBA;}
	.st14{opacity:0.2;}
	.st15{fill:#0266AE;}
</style>
<g>
	<path class="st0" d="M486,24v1.9V52v6c0,2.2-1.9,4-4.1,4h-79.7c-2.2,0-4.1-1.8-4.1-4v-6V25.9V24V10c0-2.2,1.9-4,4.1-4h79.7
		c2.2,0,4.1,1.8,4.1,4L486,24L486,24z"/>
</g>
<title>Mesa de trabajo 1</title>
<path class="st1" d="M570.1,97.7c-0.8,0-1.6-0.3-2.3-0.8l-26.6-18.3c-0.9-0.5-2-0.5-3,0l-26.6,18.3c-1.7,1.2-3.5,1-4.4-0.2
	c-0.6-1-0.8-2.2-0.4-3.2l8-28.5c0.2-1.2-0.1-2.4-0.9-3.3l-20.7-21.1c-1.4-1.1-1.7-3.2-0.6-4.6c0.7-0.8,1.7-1.3,2.7-1.3l27.4-2.6
	c1.2-0.2,2.2-0.9,2.8-2l11-25.5c1-2.2,2.4-2.4,3.1-2.4c0.7,0,2.1,0.2,3.1,2.4l11,25.5c0.6,1.1,1.6,1.8,2.8,2l27.4,2.6
	c1.8-0.1,3.4,1.3,3.4,3.2c0,1.1-0.4,2.1-1.3,2.8l-20.7,21.1c-0.8,0.9-1.1,2.2-0.8,3.3l8,28.5c0.4,1.1,0.3,2.3-0.3,3.2
	C571.7,97.3,570.9,97.7,570.1,97.7z M539.7,74.2c1.3,0,2.6,0.4,3.7,1.1l24.7,17L560.7,66c-0.6-2.6,0.1-5.3,1.8-7.2l20-20.4
	l-26.4-2.5c-2.6-0.4-4.9-2-6-4.4L539.7,7.3l-10.4,24.2c-1.1,2.4-3.4,4-6,4.4l-26.4,2.5l20,20.4c1.8,2,2.5,4.7,1.8,7.2l-7.4,26.3
	l24.7-17C537.1,74.5,538.4,74.1,539.7,74.2z"/>
<path class="st2" d="M637,42l-13.7-8.2c4.7-5.2,4.7-12.2,4.7-12.5v-8.6c0-0.1,0-0.2,0-0.4c-1.1-6.1-8.1-10.2-14-10.2l0,0
	c-5.9,0-12.9,4.1-14,10.2c0,0.1,0,0.2,0,0.4v8.6c0,0.3,0.1,7.3,4.7,12.5L591,42.1c-0.6,0.4-1,1-1,1.7v2.9c0,1.9,1.6,3.5,3.5,3.5
	h41.1c1.9,0,3.5-1.6,3.5-3.5v-2.9C638,43.1,637.6,42.4,637,42z M634,46.2h-40v-1.3l15-9l0.1-0.1l0.2-0.1c0.1-0.1,0.1-0.1,0.2-0.2
	l0.1-0.1l0,0c0.1-0.1,0.1-0.2,0.1-0.2l0.1-0.1c0-0.1,0.1-0.1,0.1-0.2c0,0,0-0.1,0.1-0.2c0.1-0.1,0-0.1,0-0.2s0-0.1,0-0.2
	c0-0.1,0-0.1,0-0.2s0-0.1,0-0.2s0-0.1,0-0.2c0-0.1,0-0.1,0-0.2l-0.1-0.1c0-0.1-0.1-0.2-0.1-0.2l0,0l-0.1-0.1c0-0.1-0.1-0.1-0.1-0.2
	l-0.2-0.2l-0.1-0.1c-5.1-4-5.2-11.2-5.2-11.3v-8.4c0.8-3.6,5.5-6.8,10-6.8s9.2,3.2,10,6.8v8.4c0,0.1,0,7.3-5.2,11.3l-0.1,0.1
	l-0.2,0.2c-0.1,0.1-0.1,0.1-0.1,0.2l-0.1,0.1l0,0c0,0.1-0.1,0.2-0.1,0.2s0,0.1-0.1,0.1c0,0.1,0,0.1,0,0.2c0,0.1,0,0.1,0,0.2
	s0,0.1,0,0.2s0,0.1,0,0.2c0,0.1,0,0.1,0,0.2s0,0.1,0,0.2c0,0.1,0,0.1,0,0.2s0,0.1,0.1,0.2l0.1,0.1c0,0.1,0.1,0.2,0.1,0.2l0,0v0.1
	c0.1,0.1,0.1,0.2,0.2,0.2l0.1,0.1l0.1,0.1l15,9L634,46.2z"/>
<path class="st2" d="M659.6,42c-2.2,0-4,1.7-4.1,3.9c0,2.2,1.7,4,3.9,4.1s4-1.7,4.1-3.9V46C663.5,43.8,661.7,42,659.6,42z
	 M686.6,12.8c-0.4-0.5-0.9-0.8-1.6-0.8h-33l-1.2-4.7c-0.9-3.1-3.7-5.2-6.9-5.3h-2c-1.1,0-2,0.9-2,2s0.9,2,2,2h2
	c1.4,0.1,2.6,1,3.1,2.4l8,30.1l0,0c0.1,0.2,0.1,0.4,0.2,0.5l0,0c0.1,0.2,0.2,0.3,0.4,0.4h0.1c0.1,0.1,0.3,0.2,0.5,0.3h0.1
	c0.2,0.1,0.4,0.1,0.6,0.1h22.2c0.9,0,1.6-0.6,1.9-1.4l5.9-24C687.1,14,687,13.3,686.6,12.8L686.6,12.8z M677.7,36h-19.3L653,16h29.3
	L677.7,36z M677.2,42c-2.2,0-4,1.7-4.1,3.9c0,2.2,1.7,4,3.9,4.1s4-1.7,4.1-3.9V46C681.1,43.8,679.4,42.1,677.2,42L677.2,42z"/>
<path class="st1" d="M752.7,2.8c-0.8-0.7-1.9-0.9-3-0.7l-27,5.4c-0.4-0.1-0.8-0.1-1.2,0l-27-5.3c-1.1-0.2-2.2,0-3,0.7
	c-0.9,0.7-1.5,1.7-1.5,2.8v49.5c0.1,2.1,1.5,3.9,3.6,4.3l28,5.5l0,0c0.1,0,0.2,0,0.4,0l0,0c0.1,0,0.2,0,0.4,0l0,0l28-5.5
	c2.1-0.4,3.6-2.2,3.7-4.3V5.6C754,4.5,753.5,3.5,752.7,2.8z M720,60.6l-25.7-5.1c-0.2-0.1-0.3-0.2-0.3-0.4V6l26,5.1V60.6z M750,55.1
	c0,0.2-0.2,0.4-0.3,0.4L724,60.6V11.2L750,6V55.1z M730,23.5c0.1,0,0.3,0,0.4,0l14-2.8c1.1-0.1,1.9-1,1.9-2.1s-1-1.9-2.1-1.9
	c-0.2,0-0.4,0-0.6,0.1l-14,2.8c-1.1,0.3-1.7,1.4-1.4,2.5C728.4,22.9,729.2,23.5,730,23.5L730,23.5z M730,49.3c0.1,0,0.3,0,0.4,0
	l14-2.8c1.1-0.1,1.9-1,1.9-2.1c-0.1-1.1-1-1.9-2.1-1.9c-0.2,0-0.4,0-0.6,0.1l-14,2.8c-1.1,0.3-1.7,1.4-1.4,2.5
	C728.4,48.7,729.2,49.2,730,49.3L730,49.3z M730,36.4c0.1,0,0.3,0,0.4,0l14-2.8c1.1-0.2,1.8-1.2,1.6-2.3l0,0
	c-0.2-1.1-1.3-1.8-2.3-1.5l-14,2.8c-1.1,0.3-1.7,1.4-1.4,2.5C728.5,35.8,729.2,36.4,730,36.4L730,36.4z M699.6,20.7l14,2.8
	c0.1,0,0.3,0,0.4,0c1.1-0.1,1.9-1,1.8-2.1c-0.1-0.8-0.6-1.5-1.5-1.8l-14-2.8c-1-0.4-2.2,0.2-2.6,1.2c-0.4,1,0.2,2.2,1.2,2.6
	C699.2,20.7,699.4,20.7,699.6,20.7L699.6,20.7z M699.6,46.5l14,2.8c0.1,0,0.3,0,0.4,0c1.1-0.1,1.9-1,1.8-2.1
	c-0.1-0.8-0.6-1.5-1.5-1.8l-14-2.8c-1-0.4-2.2,0.2-2.6,1.2c-0.4,1,0.2,2.2,1.2,2.6C699.2,46.4,699.4,46.4,699.6,46.5L699.6,46.5z
	 M699.6,33.6l14,2.8c0.1,0,0.3,0,0.4,0c1.1-0.1,1.9-1,1.8-2.1c-0.1-0.8-0.6-1.5-1.5-1.8l-14-2.8c-1-0.4-2.2,0.2-2.6,1.2
	c-0.4,1,0.2,2.2,1.2,2.6C699.2,33.5,699.4,33.5,699.6,33.6L699.6,33.6z"/>
<path class="st1" d="M819.3,17.3c-1-0.7-2.1-1.1-3.3-1.2h-5.9c1.8-1.6,2.8-3.8,2.8-6.2c0-5.2-2.7-7.9-8-7.9c-3.2,0-10.3,2.6-16,11.8
	C783.2,4.6,776.1,2,772.9,2c-5.3,0-8,2.7-8,7.9c0,2.4,1,4.6,2.8,6.2H760c-4,0-4,2.2-4,3.6v10.7c0,1.1,0.9,1.7,2,1.7h2v25.1
	c0,2.2,2.7,4.8,5,4.8h47.9c1.4,0,2.7-1.1,2.9-2.5c0.2-0.8,0.2-1.5,0.2-2.3V32.1h2c1.1,0,2-0.6,2-1.7V19.6
	C820.1,18.8,819.8,17.9,819.3,17.3z M804.9,5.9c2.1,0,4,0,4,3.9c0,4.3-6.4,6-6.5,6c-0.2,0.1-0.4,0.1-0.5,0.2h-9.8
	C798,6.4,804.9,5.9,804.9,5.9z M775.4,15.9c-0.1,0-6.5-1.7-6.5-6c0-3.9,1.9-3.9,4-3.9c0.1,0,6.9,0.5,12.8,10.2H776
	C775.8,16,775.6,15.9,775.4,15.9L775.4,15.9z M760,20.1h26v8h-26v-7.5C760.2,20.6,759.6,20.1,760,20.1z M764,57.2V32.1h22v26h-20.9
	C764.7,57.9,764.3,57.6,764,57.2z M812,57.2c0,0.2,0,0.5,0,0.8h-22V32h22V57.2z M816,28.1h-26v-8h26V28.1z"/>
<path class="st1" d="M854,2c-17.7,0-32,14.3-32,32s14.3,32,32,32s32-14.3,32-32S871.7,2,854,2z M854,62c-15.5,0-28-12.5-28-28
	s12.5-28,28-28s28,12.5,28,28S869.5,62,854,62z M867.2,18.2L848,27l0,0c-0.2,0.1-0.4,0.2-0.5,0.4l0,0c-0.2,0.2-0.3,0.3-0.4,0.5l0,0
	l-8.8,19.2c-0.5,1,0,2.2,1,2.7c0.5,0.2,1.1,0.2,1.7,0l19-8.8l0,0c0.2-0.1,0.4-0.2,0.5-0.4l0,0c0.2-0.2,0.3-0.3,0.4-0.5l0,0l8.8-19.2
	c0.5-1,0-2.2-1-2.7c-0.5-0.2-1.1-0.2-1.7,0C867,18.2,867.2,18.2,867.2,18.2z M844.1,43.9l5.4-11.6l6.3,6.3L844.1,43.9z M858.6,35.7
	l-6.3-6.3l11.6-5.4L858.6,35.7z"/>
<path class="st3" d="M63,109.5H3.7c-0.8,0-1.7,0.3-1.7,1v37c0,0.8,0.9,2,1.7,2H63c0.8,0,1-0.2,1-1v-37C64,110.8,63.7,109.5,63,109.5
	z M61,146.5H5v-34h56V146.5z M8,142.5h50c0.5-0.1,0.9-0.5,1-1v-12c0-0.4,0.3-0.8-0.1-0.8l-0.9-0.2H8c-0.5,0.1-0.9,0.5-1,1V142
	C7,142.4,7.6,142.5,8,142.5L8,142.5z M10,131.5h46v8H10V131.5z M14.6,124.2h9.6c0.2,0,0.4-0.3,0.4-0.5v-7.2c0-0.2-0.2-0.5-0.4-0.5
	h-9.6c-0.2,0-0.4,0.2-0.4,0.5v7.2C14.2,123.9,14.4,124.2,14.6,124.2L14.6,124.2z M16.1,119.8c0.1,0,0.2,0,0.3,0.1
	c0-0.5,0.4-0.9,0.9-0.9c0.5,0.1,0.9,0.5,0.9,1c0,0.2,0,0.3-0.1,0.5h5.5v0.8h-0.5v1.2h-0.5V122h-0.5v0.5H22v-1.2h-3.8
	c0,0,0.1,0.2,0.1,0.4c0,0.5-0.4,0.9-0.9,0.9l0,0c-0.5,0-0.9-0.4-0.9-0.9c-0.1,0-0.2,0.1-0.3,0.1c-0.5-0.1-0.9-0.5-0.8-1
	C15.3,120.3,15.7,119.9,16.1,119.8L16.1,119.8z M17.3,122c0.2,0,0.4-0.2,0.4-0.4c0-0.2-0.2-0.4-0.4-0.4c-0.2,0-0.4,0.2-0.4,0.4l0,0
	C16.9,121.8,17.1,122,17.3,122z M17.3,120.3c0.2,0,0.4-0.2,0.4-0.4s-0.2-0.4-0.4-0.4c-0.2,0-0.4,0.2-0.4,0.4l0,0
	C16.9,120.1,17.1,120.3,17.3,120.3L17.3,120.3z M16.1,121.2c0.2,0,0.4-0.2,0.4-0.4s-0.2-0.4-0.4-0.4c-0.2,0-0.4,0.2-0.4,0.4l0,0
	C15.8,121,15.9,121.2,16.1,121.2L16.1,121.2z M33.7,122.6c1.1,0,2-0.8,2.1-1.9c0-1.1-0.8-2-1.9-2.1c-1.1,0-2,0.8-2.1,1.9v0.1
	C31.8,121.7,32.6,122.6,33.7,122.6L33.7,122.6z M33.7,119.4c0.7,0.1,1.1,0.6,1.1,1.3c-0.1,0.6-0.5,1-1.1,1.1
	c-0.7-0.1-1.1-0.6-1.1-1.3C32.7,120,33.1,119.5,33.7,119.4z M30.1,122.6h1.4c0-0.9,0-0.6,0-0.9H30c-0.9-0.1-1.5-0.8-1.4-1.7l0,0
	c0-0.9,0.7-1.6,1.6-1.6h1.3v-0.8c-0.7,0-1.4,0-1.9,0c-1.1,0.3-1.8,1.3-1.8,2.5C27.7,121.4,28.8,122.5,30.1,122.6L30.1,122.6z
	 M36.7,124.2v-2c0.3,0.3,0.8,0.4,1.2,0.4c1.1,0,2-0.9,2-2s-0.9-2-2-2s-1.9,0.9-1.9,2v3.5L36.7,124.2z M37.8,119.4
	c0.7,0,1.2,0.5,1.2,1.2s-0.5,1.2-1.2,1.2c-0.6,0-1.1-0.5-1.1-1.1v-0.1C36.7,120,37.2,119.5,37.8,119.4L37.8,119.4L37.8,119.4z
	 M40.8,124.2v-2c0.3,0.3,0.8,0.4,1.2,0.4c1.1,0,2-0.9,2-2s-0.9-2-2-2s-1.9,0.9-1.9,2v3.5L40.8,124.2z M42,119.4
	c0.7,0,1.2,0.5,1.2,1.2l0,0c0,0.7-0.5,1.2-1.2,1.2l0,0c-0.6,0-1.1-0.5-1.1-1.1v-0.1C40.8,120,41.3,119.5,42,119.4L42,119.4z
	 M46.4,122.7h1.2V122h-1.4c-0.4,0-0.6-0.2-0.5-0.2l1.8-1.9c0.2-0.2,0.2-0.5,0-0.6c-0.3-0.3-0.8-0.5-1.2-0.6c-1.1,0-2,0.9-2,2
	C44.2,121.8,45.2,122.7,46.4,122.7L46.4,122.7z M46.2,119.4c0.1,0,0.3,0.1,0.4,0.1l-1.5,1.6c-0.1-0.2-0.1-0.3-0.1-0.5
	C45,119.9,45.5,119.4,46.2,119.4L46.2,119.4z M49.8,122.6h0.9v-0.8h-1.1c-0.6,0-1.1-0.5-1.1-1.1v-0.1v-3.1h-0.7v2.9
	c-0.1,0.7,0.2,1.3,0.6,1.8C48.9,122.5,49.4,122.6,49.8,122.6z"/>
<path class="st3" d="M83.5,137.2c-2.9,0-5.3-2.3-5.3-5.2c0-0.1,0-0.3,0-0.4c0-3.9,2.7-5.7,5.2-5.7c2.2-0.2,4.2,1.3,4.7,3.4l3.1-1
	c-0.7-2.8-3.1-5.6-7.8-5.6c-4.7,0-8.6,3.8-8.7,8.5c0,0.1,0,0.2,0,0.4c-0.2,4.7,3.4,8.6,8.1,8.8c0.2,0,0.4,0,0.6,0
	c3.7,0.2,6.9-2.2,7.9-5.8l-3.1-0.9C87.7,135.9,85.7,137.3,83.5,137.2z M96.8,130.1v-1.8h-3.1v11.8h3.2v-5.4c0-2.5,1.4-3.3,3-3.3
	c0.3,0,0.7,0,1,0.1v-3.2c-0.2,0-0.5,0-0.7,0C98.8,128.1,97.4,128.9,96.8,130.1z M107.9,127.9c-3.5,0.3-6,3.3-5.8,6.7
	c0.2,3.2,2.9,5.7,6.1,5.8c2.4,0.1,4.6-1.4,5.4-3.7l-2.7-0.8c-0.4,1.2-1.5,1.9-2.7,1.8c-1.6,0.1-2.9-1.1-3-2.7h8.4c0,0,0-0.5,0-1
	C113.8,130.3,111.6,127.9,107.9,127.9z M105.4,132.9c0.1-1.4,1.3-2.4,2.6-2.3c1.3-0.1,2.5,0.8,2.6,2.1c0,0.1,0,0.2,0,0.2H105.4z
	 M112.4,123.3h-3.7l-2.2,3.6h2.5L112.4,123.3z M127.6,122.7h-3.2v6.7c-0.3-0.6-1.3-1.5-3.3-1.5c-3.3,0-5.7,2.7-5.7,6.2
	s2.4,6.2,5.8,6.2c1.3,0.1,2.6-0.6,3.3-1.7c0,0.5,0,0.9,0.1,1.4h3c0-0.5-0.1-1.3-0.1-2.1L127.6,122.7z M121.6,137.5
	c-1.7,0-2.9-1.2-2.9-3.4s1.3-3.3,2.9-3.3s2.9,1.2,2.9,3.3C124.5,136.2,123.2,137.6,121.6,137.5L121.6,137.5z M131.1,140.1h3.2v-11.8
	H131L131.1,140.1z M132.6,122.5c-1.1,0.2-1.8,1.3-1.6,2.3c0.2,0.8,0.8,1.4,1.6,1.6c1.1-0.2,1.8-1.3,1.6-2.3
	C134.1,123.2,133.4,122.6,132.6,122.5z M141.6,124.8h-2.9v1.7c0.1,0.9-0.6,1.8-1.5,1.9c-0.1,0-0.2,0-0.3,0h-0.6v2.8h2.1v5.5
	c-0.1,1.9,1.3,3.5,3.2,3.7c0.2,0,0.4,0,0.6,0c0.6,0,1.2-0.1,1.8-0.3v-2.6c-0.3,0.1-0.7,0.1-1,0.1c-0.9,0-1.4-0.3-1.4-1.4v-4.9h2.4
	v-2.8h-2.4L141.6,124.8L141.6,124.8z M151.9,128c-3.5,0-6.3,2.7-6.3,6.2s2.7,6.3,6.2,6.3s6.3-2.7,6.3-6.2c0,0,0,0,0-0.1
	c0.2-3.3-2.4-6.1-5.7-6.3c-0.2,0-0.4,0-0.6,0L151.9,128z M151.9,137.6c-1.9,0.2-3.5-1.1-3.7-3s1.1-3.5,3-3.7s3.5,1.1,3.7,3
	c0,0.1,0,0.3,0,0.4c0.2,1.6-1,3.1-2.6,3.3c-0.2,0-0.3,0-0.5,0H151.9z M174.5,137.2c-2.9,0-5.3-2.3-5.3-5.2c0-0.1,0-0.3,0-0.4
	c0-3.9,2.7-5.7,5.2-5.7c2.2-0.2,4.2,1.3,4.7,3.4l3.1-1c-0.7-2.8-3.1-5.6-7.8-5.6s-8.6,3.8-8.7,8.5c0,0.1,0,0.2,0,0.4
	c-0.2,4.7,3.4,8.6,8.1,8.8c0.2,0,0.4,0,0.6,0c3.7,0.2,6.9-2.2,7.9-5.8l-3.1-0.9c-0.6,2.2-2.6,3.6-4.9,3.5L174.5,137.2L174.5,137.2z
	 M189.8,127.9c-3.5,0-6.3,2.7-6.3,6.2s2.7,6.3,6.2,6.3s6.3-2.7,6.3-6.2c0,0,0,0,0-0.1c0.1-3.3-2.4-6.1-5.7-6.3c-0.2,0-0.4,0-0.6,0
	L189.8,127.9z M189.8,137.6c-1.9,0.2-3.5-1.1-3.7-3s1.1-3.5,3-3.7s3.5,1.1,3.7,3c0,0.1,0,0.3,0,0.4c0.2,1.6-1,3.1-2.6,3.3
	c-0.2,0-0.3,0-0.5,0H189.8z M205.1,128c-1.4-0.1-2.8,0.5-3.6,1.7v-1.4h-3.1v16.4h3.2V139c0.9,1,2.1,1.5,3.4,1.4
	c3.3,0,5.6-2.6,5.6-6.2C210.6,130.6,208.6,128,205.1,128z M204.5,137.5c-1.8-0.2-3.1-1.9-2.9-3.7c0.2-1.5,1.4-2.7,2.9-2.9
	c1.6,0,2.9,1.2,2.9,3.3C207.4,136.3,206.1,137.6,204.5,137.5L204.5,137.5z M219.8,128c-1.4-0.1-2.8,0.5-3.6,1.7v-1.4h-3.1v16.4h3.2
	V139c0.8,1,2.1,1.5,3.4,1.4c3.3,0,5.6-2.6,5.6-6.2C225.3,130.6,223.2,128,219.8,128L219.8,128z M219.2,137.5
	c-1.8-0.2-3.1-1.9-2.9-3.7c0.2-1.5,1.4-2.7,2.9-2.9c1.6,0,2.9,1.2,2.9,3.3C222.1,136.3,220.8,137.6,219.2,137.5L219.2,137.5z
	 M232.7,127.9c-3.5,0.3-6,3.3-5.8,6.7c0.2,3.2,2.9,5.7,6.1,5.8c2.4,0.1,4.6-1.4,5.4-3.7l-2.7-0.8c-0.4,1.2-1.5,1.9-2.7,1.8
	c-1.6,0.1-2.9-1.1-3-2.7h8.4c0,0,0-0.5,0-1C238.5,130.3,236.3,127.9,232.7,127.9L232.7,127.9z M230.1,132.8c0.1-1.4,1.3-2.4,2.6-2.3
	c1.3-0.1,2.5,0.8,2.6,2.1c0,0.1,0,0.2,0,0.2H230.1z M241,122.7v17.4h3.2v-17.4C244.2,122.7,241,122.7,241,122.7z"/>
<path class="st3" d="M317.7,129.1c0.6-0.5,1-1,1.3-1.7c0.4-1,0.6-2,0.5-3c0-1.2-0.4-2.3-1-3.3c-1.2-2.1-3.6-2.9-6.2-2.8H312h-3.4
	H305v23h3.8h3.4h1.4c1.2,0,2.4-0.3,3.5-0.8c1-0.5,1.9-1.3,2.4-2.3c0.6-1.1,1-2.4,0.9-3.7C320.4,132,319.8,130.1,317.7,129.1z
	 M308.7,121.8h4.5c3.8,0.1,3.9,6.1-0.9,5.8h-3.7L308.7,121.8z M313.4,137.4h-4.8v-6.3h4.5C317.9,130.9,318.3,137.8,313.4,137.4
	L313.4,137.4z M265.1,128.8c0,1.1-0.9,1.9-1.9,1.9s-1.9-0.9-1.9-1.9c0-1.1,0.9-1.9,1.9-1.9S265.1,127.7,265.1,128.8z M259.5,132.7
	c0,1.1-0.9,1.9-1.9,1.9c-1.1,0-1.9-0.9-1.9-1.9c0-1.1,0.8-1.9,1.9-1.9l0,0C258.6,130.8,259.5,131.6,259.5,132.7L259.5,132.7
	L259.5,132.7z M265.1,136.6c0,1.1-0.9,1.9-2,1.8c-1.1,0-1.9-0.9-1.8-2c0-1,0.9-1.8,1.9-1.8C264.3,134.7,265.1,135.5,265.1,136.6
	L265.1,136.6L265.1,136.6z M296,110.5h-45c-1.1,0-2,0.9-2,2v34c0,1.1,0.9,2,2,2h46c1,0,1-1.9,1-3v-33
	C298,111.4,297.1,110.5,296,110.5z M291.3,140.8h-2.2v-2.1H287v2.2h-2.2V135h6.5V140.8z M293,130.5v4.2h-4.9h-20.9
	c0.3,0.6,0.4,1.2,0.4,1.8c0,2.4-1.9,4.3-4.3,4.4l0,0l0,0c-2.3,0-4.1-1.8-4.3-4.1c-0.4,0.2-0.9,0.3-1.4,0.3h-0.2
	c-2.4,0-4.4-2-4.4-4.4s2-4.4,4.4-4.4h0.2c0.5,0,0.9,0.1,1.4,0.3c0.1-2.3,2-4.1,4.3-4.2l0,0c2.4,0,4.3,2,4.3,4.4
	c0,0.6-0.2,1.1-0.5,1.6L293,130.5L293,130.5z M425.3,123.1L425.3,123.1c-4.9,0.1-8.9,4.1-8.9,9v16h3.4v-8.9c1.6,1.3,3.6,2,5.6,2
	c5,0,9-4,9-9C434.5,127.1,430.4,123.1,425.3,123.1L425.3,123.1L425.3,123.1z M425.3,137.6h-0.2c-2.8,0.1-5.1-2.1-5.2-4.8
	c0-0.1,0-0.3,0-0.4c0-3,2.1-5.7,5.1-5.7h0.2c3,0,5.5,2.4,5.5,5.5C430.7,135.3,428.4,137.6,425.3,137.6z M442.7,137.4
	c-0.4-0.2-0.7-0.4-0.6-0.4l0.6-0.6l7.6-7.9c0.8-0.8,0.8-2.1,0-2.9c-1.5-1.5-3.5-2.5-5.7-2.6c-0.6,0-1.3,0.1-1.9,0.2
	c-4.9,0.9-8.1,5.6-7.2,10.5c0.7,3.6,3.5,6.5,7.2,7.2c0.9,0.2,1.8,0.3,2.7,0.2h5.5v-3.4h-6.3C443.9,137.7,443.3,137.6,442.7,137.4z
	 M438.9,132.1c0-2.4,1.6-4.5,3.8-5.2c0.6-0.2,1.2-0.3,1.9-0.3c0.7,0.1,1.3,0.3,1.9,0.6l-3.8,3.9l-3.3,3.4
	C439,133.8,438.8,133,438.9,132.1L438.9,132.1z M406.1,123.1L406.1,123.1c-4.9,0.1-8.9,4.1-8.9,9v16h3.3v-8.9c1.6,1.3,3.6,2,5.6,2
	c5,0,9-4,9-9C415.2,127.1,411.2,123.1,406.1,123.1L406.1,123.1L406.1,123.1z M406.1,137.6H406c-2.8,0.1-5.1-2.1-5.2-4.8
	c0-0.1,0-0.3,0-0.4c0-3,2.1-5.7,5.1-5.7h0.2c2.9,0.1,5.3,2.5,5.3,5.4S409.1,137.4,406.1,137.6L406.1,137.6z M331.4,123.3
	L331.4,123.3c-5,0-9.1,4.1-9.1,9.1c0,5,4.1,9.1,9.1,9.1l0,0c1.9,0,3.8-0.7,5.4-1.9v1.7h3.5v-8.9c0-0.2,0-0.3,0-0.5
	c-0.1-0.9-0.2-1.7-0.5-2.6C338.5,125.7,335.2,123.3,331.4,123.3L331.4,123.3z M331.4,137.8L331.4,137.8c-3-0.1-5.3-2.7-5.2-5.6
	c0.1-2.8,2.4-5.1,5.2-5.2l0,0c3,0,5.4,2.4,5.4,5.4C336.9,135.4,334.4,137.8,331.4,137.8L331.4,137.8z M465.2,137.3v3.8l-4.1,0.1
	c-2.2,0-4.5-0.4-5.9-1.7c-1.8-1.8-2.9-3.9-2.9-8.2l0.1-13h3.3v13.6c0,1.7,0.7,3.3,2,4.4c0.8,0.6,1.8,0.9,2.8,0.9L465.2,137.3z
	 M357.3,129.6v11.7h-3.4V130c0-2.1-2-3.4-4.2-3.4c-1.9-0.1-3.6,1.3-3.7,3.2c0,0.1,0,0.1,0,0.2v11.3h-3.4v-11.2
	c0-0.9,0.2-1.8,0.4-2.7c0.3-0.9,0.9-1.7,1.6-2.4c1.3-1,2.8-1.7,4.5-2c2.3-0.3,4.6,0.4,6.3,1.9l0,0
	C356.6,126.1,357.4,127.8,357.3,129.6L357.3,129.6z M387,123.1L387,123.1c-5,0.2-8.9,4.4-8.8,9.4c0.2,4.8,4,8.6,8.8,8.8l0,0
	c5,0,9-4,9-9C396,127.2,392,123.1,387,123.1L387,123.1z M387,137.6L387,137.6c-3-0.1-5.3-2.6-5.2-5.6c0.1-2.8,2.4-5,5.2-5.2l0,0
	c3,0.1,5.3,2.6,5.2,5.6C392,135.2,389.8,137.4,387,137.6z M376.7,118.2v3.8c-2.2,0-3.9,0.1-6,0.1c-4,0-7.2,3.2-7.3,7.2
	c-0.2,4.1,2.5,7.7,6.5,8h6.7v3.9h-6.3c-6.2-0.2-11-5.3-10.9-11.5c0-4.9,3.6-10.6,8.4-11.3C370,118.1,373.5,118.3,376.7,118.2z"/>
<path class="st3" d="M488.3,115.4h11.9v0.8c-3.1,0-3.8,1.4-3.8,2.6v21.6c0,1.2,0.6,2.6,3.8,2.6v0.8h-11.9V143c3.1,0,3.8-1.4,3.8-2.6
	v-10.3h-13v10.3c0,1.2,0.6,2.6,3.8,2.6v0.8H471V143c3.1,0,3.8-1.4,3.8-2.6v-21.6c0-1.2-0.6-2.6-3.8-2.6v-0.8h11.9v0.8
	c-3.1,0-3.8,1.4-3.8,2.6v9.6h13v-9.6c0-1.2-0.6-2.6-3.8-2.6L488.3,115.4L488.3,115.4z M510.6,126.1c-1.8-1.1-4.5-2.9-4.5-5.4
	c0-2.7,1.9-4.1,4.5-4.1c4,0,6.8,3.4,7.8,7.4h1.1l-0.9-9.2h-0.9c-1,3.2-3.1,0-7.6,0c-4.2,0-7.6,2.9-7.6,7.2c0,8.2,11.7,8.5,13.4,14.5
	c0.8,2.6-0.6,5.3-3.1,6.1c-0.5,0.2-1.1,0.3-1.7,0.2c-4.5,0-7.5-3.6-8.8-7.6h-1l1.3,9.3h0.9c0.4-3.1,3.5,0,8,0c5.8,0,9-4,9-7.9
	C520.4,131.4,516.5,129.6,510.6,126.1L510.6,126.1z M547.2,136.1c0,5.2-4.4,7.8-11.2,7.8h-13.5v-0.8c3.5,0,4.1-1.4,4.1-2.6v-21.6
	c0-1.2-0.6-2.6-4.1-2.6v-0.8H534c6.6,0,11.7,1.8,11.7,7.3c0,3.6-2.4,5.5-5.7,6.2v0.1C543.7,129.6,547.2,131.9,547.2,136.1z
	 M531,128.1h3.5c4.3,0,6.8-1.9,6.8-5.3c0-3.3-2-5-5-5.6c-3.9-0.3-5.3-0.3-5.3,1.2V128.1L531,128.1z M542.2,135.9
	c0-5.1-5.1-6.1-9.1-6.1H531V140c0,1.5,0.4,2.3,3.5,2.3C539,142.3,542.2,141,542.2,135.9L542.2,135.9z M562.6,142.3
	c-7,0-10.1-6.5-10.1-12.5c0-7.8,3-13.5,10.1-13.5c4.9,0,8,3.2,9.2,8h1l-0.4-9.7h-0.9c-1.4,3.5-3.5,0-9.4,0
	c-8.6,0-14.6,6.3-14.6,14.9c0,9.4,6.4,14.8,14.7,14.8c4.3-0.1,8.4-2.1,11.1-5.4l-0.7-0.9C570,140.9,566.4,142.4,562.6,142.3
	L562.6,142.3z M624.6,114.6h-28.7l14.4,14.5L624.6,114.6z M595.8,143.6h28.8l-14.4-14.5L595.8,143.6z M581.5,129.1l14.4,14.5v-29
	L581.5,129.1z M624.6,114.6v29l14.4-14.5L624.6,114.6z"/>
<path class="st3" d="M672.7,130h-5.5c0,1.5-0.3,2.9-0.7,4.3h5C672.2,133,672.6,131.5,672.7,130z M671.5,124.8h-5
	c0.5,1.4,0.7,2.8,0.7,4.3h5.5C672.6,127.6,672.2,126.2,671.5,124.8L671.5,124.8z M662.5,119.1c1.6,1.3,2.8,2.9,3.6,4.8h4.8
	C669,121,665.9,119.2,662.5,119.1L662.5,119.1z M659.1,123.9h5.9c-0.7-1.4-1.7-2.7-2.9-3.8C660.9,121.1,659.9,122.4,659.1,123.9
	L659.1,123.9z M651.5,129.1h5.5c0-1.5,0.3-2.9,0.8-4.3h-5.1C652,126.2,651.6,127.7,651.5,129.1L651.5,129.1z M670.8,135.1H666
	c-0.8,1.9-2,3.5-3.6,4.8C665.9,139.9,669.1,138.1,670.8,135.1L670.8,135.1z M658.7,134.3h6.7c0.5-1.4,0.7-2.8,0.8-4.3h-8.4
	C658,131.5,658.3,132.9,658.7,134.3L658.7,134.3z M673.5,129.5c0.1,6.5-5.8,11.4-10.7,11.4h-12.2l-7.6,7.6h19.7
	c6.7-0.2,12.1-5.6,12.3-12.4c0.1-2.3-0.4-4.5-1.5-6.5V129.5z M652.7,134.3h5.1c-0.5-1.4-0.7-2.8-0.8-4.3h-5.5
	C651.6,131.5,652,133,652.7,134.3L652.7,134.3z M665.4,124.9h-6.7c-0.5,1.4-0.8,2.8-0.8,4.3h8.4
	C666.2,127.7,665.9,126.3,665.4,124.9L665.4,124.9z M665,135.1h-5.9c0.7,1.5,1.8,2.8,3,3.9C663.3,137.9,664.3,136.6,665,135.1
	L665,135.1z M661.7,139.9c-1.6-1.2-2.8-2.9-3.6-4.8h-4.9C655,138.1,658.3,139.9,661.7,139.9L661.7,139.9z M653.2,123.9h4.9
	c0.7-1.9,2-3.5,3.6-4.8C658.3,119.2,655.1,121,653.2,123.9L653.2,123.9z M649.1,122.9c-0.1,2.3,0.4,4.5,1.5,6.5
	c-0.1-6.3,5.8-11.2,10.7-11.2h12.2l7.7-7.7h-19.7C654.7,110.7,649.3,116.2,649.1,122.9L649.1,122.9z M851.3,131.6l5.5-7H851
	l-4.5,6.2h-0.1v-12.4h-5.2v21.2h5.2v-7h0.1l4.7,7h5.8L851.3,131.6z M757.1,116.9c-1.6,0-2.9,1.4-2.9,3s1.4,2.9,3,2.9
	s2.9-1.3,2.9-2.9C760.1,118.2,758.8,117,757.1,116.9L757.1,116.9z M792.6,124.2c-1.6,0-3.2,0.5-4.6,1.4l0,0v-7.3h-5.2v21.2h5
	l0.1-1.4h0.1c1.3,1.2,3,1.8,4.7,1.7c3.8,0,7.1-2.7,7.1-8.1C799.7,127.5,796.7,124.2,792.6,124.2L792.6,124.2z M791.1,135.9
	c-2,0-3.2-1.6-3.2-3.8s1.4-3.8,3.2-3.8c2,0,3.2,1.8,3.2,3.8C794.2,134.4,792.9,135.9,791.1,135.9L791.1,135.9z M831.7,124.2
	c-1.8,0-3.5,0.7-4.8,2h-0.1v-1.7h-4.6v15h5.1v-7.8c-0.1-1.6,1-2.9,2.6-3.1c0.1,0,0.1,0,0.2,0c1.8,0,2.8,1.1,2.8,3.1v7.8h5.2v-9.1
	c0.1-3.3-2.4-6.1-5.7-6.2C832.1,124.2,831.9,124.2,831.7,124.2L831.7,124.2z M774.1,125.9L774.1,125.9c-1.3-1.2-3-1.8-4.7-1.7
	c-4.3,0-7.2,3.5-7.2,7.9c0,4.7,3.2,7.9,6.8,7.9c3.3,0,4.5-1.3,5-1.9h0.1l0.1,1.5h5.1v-15h-5.2L774.1,125.9L774.1,125.9z M770.9,136
	c-1.8,0-3.2-1.6-3.2-4c0-2,1.3-3.7,3.2-3.7s3.2,1.6,3.2,3.9C774.3,134.1,772.8,135.8,770.9,136z M731.2,124.2c-5,0-8.8,3.2-8.8,7.9
	s3.7,7.9,8.8,7.9s8.8-3.1,8.8-7.9S736.2,124.2,731.2,124.2L731.2,124.2z M731.2,136.2c-2.1,0-3.4-1.9-3.4-4.1c0-2.2,1.1-4.1,3.4-4.1
	s3.4,1.9,3.4,4.1C734.6,134.3,733.3,136.1,731.2,136.2L731.2,136.2z M813.5,126L813.5,126c-1.3-1.2-3-1.8-4.7-1.7
	c-4.3,0-7.2,3.5-7.2,7.9c0,4.7,3.2,7.9,6.8,7.9c3.3,0,4.5-1.3,5-1.9h0.1l0.1,1.5h5.1v-15h-5.2L813.5,126L813.5,126z M810.3,136
	c-1.8,0-3.2-1.6-3.2-4c0-2.1,1.3-3.7,3.2-3.7s3.2,1.6,3.2,3.9C813.7,134.1,812.3,135.8,810.3,136z M697.8,125c0-1.4,1.4-1.7,2.8-1.7
	c1.7,0.1,3.4,0.5,5,1.2l0.4-4.6c-1.7-0.5-3.6-0.7-5.4-0.7c-4.4,0-8.8,1.7-8.8,6.1c0,6.6,9.3,5.2,9.3,8.7c0,1.3-1.3,1.8-3,1.8
	c-1.9-0.1-3.8-0.7-5.5-1.6l-0.5,4.9c2,0.6,4,0.8,6.1,0.9c4.5,0,9-1.6,9-6.5C707.2,126.7,697.8,127.6,697.8,125L697.8,125z
	 M748.3,133.5v-5.1h3.3v-3.8h-3.3v-4.9H743v4.8h-2.3v3.8h2.3v6c0,3.3,1.5,5.6,5.4,5.6c1,0,1.9-0.1,2.9-0.3l0.7-4.1
	c-0.5,0.1-1,0.2-1.5,0.3c-1.1,0.1-2.1-0.7-2.3-1.9C748.2,133.8,748.2,133.6,748.3,133.5L748.3,133.5z M754.5,139.7h5.3v-15.1h-5.3
	V139.7z M718.2,128.5c0.9,0,1.8,0.3,2.6,0.7l0.3-4.4c-1.2-0.4-2.5-0.6-3.8-0.6c-4.7,0-8.3,3-8.3,7.9c0,4.5,3.2,7.9,8.1,7.9
	c1.4,0,2.7-0.2,4-0.7l-0.3-4.4c-0.8,0.5-1.7,0.7-2.7,0.8c-1.9,0.1-3.6-1.4-3.7-3.3c0-0.1,0-0.2,0-0.3c-0.1-2,1.4-3.6,3.4-3.7
	C718,128.4,718.1,128.4,718.2,128.5L718.2,128.5z"/>
<path class="st3" d="M982,124.3c-0.5-0.6-1.1-1.1-1.8-1.5c-0.8-0.4-1.7-0.6-2.6-0.6c-1.9,0-3.7,0.7-5,2.1c-0.6,0.7-1.2,1.5-1.5,2.3
	c-0.7,1.9-0.7,4.1,0,6c0.3,0.9,0.9,1.7,1.5,2.3c1.3,1.4,3.1,2.1,5,2.1c0.9,0,1.8-0.2,2.6-0.6c0.7-0.4,1.3-0.9,1.8-1.5v1.7h3.1v-14.1
	H982V124.3z M981.9,131.4c-0.2,0.5-0.5,1-0.9,1.4s-0.8,0.7-1.3,0.9s-1.1,0.4-1.7,0.3c-0.6,0-1.2-0.1-1.8-0.4c-0.5-0.2-1-0.6-1.3-1
	c-0.4-0.4-0.7-0.9-0.8-1.4c-0.4-1.1-0.4-2.4,0-3.5c0.2-0.5,0.5-1,0.8-1.4c0.4-0.4,0.8-0.8,1.3-1c1.1-0.5,2.4-0.5,3.5,0
	c0.5,0.2,1,0.6,1.3,1c0.4,0.4,0.7,0.9,0.9,1.4C982.3,129,982.3,130.3,981.9,131.4L981.9,131.4z M1082.6,122.2
	c-0.8,0-1.6,0.1-2.3,0.5c-0.7,0.4-1.3,1-1.7,1.7v-1.8h-2.8v14.1h2.8V129c0-0.5,0.1-1.1,0.2-1.6c0.1-0.4,0.4-0.9,0.7-1.2
	s0.7-0.6,1.1-0.7c0.4-0.2,0.9-0.3,1.3-0.2c0.4,0,0.8,0,1.2,0.1c0.2,0,0.4,0.1,0.6,0.2l0.9-2.9c-0.2-0.1-0.5-0.1-0.8-0.2
	C1083.5,122.2,1083,122.2,1082.6,122.2L1082.6,122.2z M966.3,123.8c-0.5-0.5-1.1-0.9-1.8-1.2c-0.7-0.3-1.5-0.4-2.2-0.4
	c-0.4,0-0.9,0-1.3,0.1c-0.5,0.1-0.9,0.2-1.3,0.4c-0.5,0.2-0.9,0.5-1.3,0.8c-0.4,0.4-0.7,0.8-1,1.2c-0.5-0.8-1.1-1.4-1.9-1.8
	c-0.9-0.5-1.8-0.7-2.8-0.7c-0.4,0-0.7,0-1.1,0.1c-0.4,0.1-0.8,0.2-1.1,0.3c-0.4,0.2-0.7,0.4-1.1,0.6c-0.4,0.3-0.7,0.6-0.9,1v-1.7h-3
	v14.1h3v-7.8c0-0.5,0.1-1.1,0.3-1.6c0.2-0.4,0.4-0.8,0.8-1.2c0.3-0.3,0.7-0.6,1.1-0.7c0.4-0.2,0.9-0.2,1.4-0.2c0.9,0,1.7,0.3,2.3,1
	c0.6,0.8,0.9,1.7,0.8,2.7v7.8h3v-7.8c0-0.5,0.1-1.1,0.3-1.6c0.2-0.4,0.4-0.8,0.8-1.2c0.3-0.3,0.7-0.6,1.1-0.7
	c0.4-0.2,0.9-0.2,1.4-0.2c0.9,0,1.7,0.3,2.3,1c0.6,0.8,0.9,1.7,0.8,2.7v7.8h3v-8.8c0-0.8-0.1-1.5-0.4-2.3
	C967.3,125,966.9,124.3,966.3,123.8z M1097,116.9v7.4c-0.5-0.6-1.1-1.1-1.8-1.5c-0.8-0.4-1.7-0.6-2.6-0.6c-1.9,0-3.7,0.7-5,2.1
	c-0.6,0.7-1.2,1.5-1.5,2.3c-0.4,1-0.6,2-0.5,3c0,1,0.2,2,0.5,3c0.3,0.9,0.8,1.7,1.5,2.3c1.3,1.4,3.1,2.1,5,2.1
	c0.9,0,1.8-0.2,2.6-0.6c0.7-0.4,1.3-0.9,1.8-1.5v1.7h3v-19.8L1097,116.9z M1096.8,131.4c-0.2,0.5-0.5,1-0.9,1.4s-0.8,0.7-1.3,0.9
	s-1.1,0.4-1.7,0.3c-0.6,0-1.2-0.1-1.8-0.4c-0.5-0.2-1-0.6-1.3-1c-0.4-0.4-0.7-0.9-0.8-1.4c-0.2-0.6-0.3-1.2-0.3-1.8s0.1-1.2,0.3-1.8
	c0.2-0.5,0.5-1,0.8-1.4c0.4-0.4,0.8-0.8,1.3-1c1.1-0.5,2.4-0.5,3.5,0c0.5,0.2,1,0.6,1.3,1c0.4,0.4,0.7,0.9,0.9,1.4
	C1097.3,129,1097.3,130.2,1096.8,131.4L1096.8,131.4z M1012.4,133.8c-0.5,0.2-1,0.3-1.5,0.3c-0.3,0-0.6,0-0.9-0.1s-0.5-0.3-0.7-0.5
	s-0.4-0.5-0.5-0.8c-0.1-0.4-0.2-0.8-0.2-1.2v-6.1h4.9v-2.8h-4.9v-4.3h-3.1v4.3h-2.8v2.8h2.8v6.2c-0.1,1.5,0.4,3,1.3,4.1
	c1,0.9,2.3,1.4,3.7,1.3c0.8,0,1.6-0.1,2.4-0.4c0.5-0.2,0.9-0.4,1.3-0.6l-1-2.6C1013,133.6,1012.7,133.7,1012.4,133.8L1012.4,133.8z
	 M1027.9,124.3c-0.6-0.7-1.3-1.2-2.1-1.5c-0.8-0.4-1.8-0.5-2.7-0.5c-1,0-1.9,0.2-2.8,0.5c-0.8,0.3-1.6,0.9-2.2,1.5
	c-0.6,0.7-1.1,1.5-1.4,2.3c-0.3,1-0.5,2-0.5,3s0.2,2,0.5,3c0.3,0.9,0.8,1.7,1.5,2.3c0.6,0.7,1.4,1.2,2.3,1.5
	c0.9,0.4,1.9,0.5,2.9,0.5s2-0.1,3-0.4s1.9-0.8,2.7-1.5l-1.5-2.2c-0.6,0.5-1.2,0.8-1.9,1.1c-0.7,0.3-1.4,0.4-2.1,0.4
	c-0.5,0-1-0.1-1.4-0.2c-0.5-0.1-0.9-0.3-1.2-0.6c-0.4-0.3-0.7-0.7-1-1.1c-0.3-0.5-0.5-1.1-0.5-1.6h10.4c0-0.2,0-0.4,0-0.6
	s0-0.4,0-0.6c0-1-0.2-2-0.5-3C1028.9,125.7,1028.5,125,1027.9,124.3L1027.9,124.3z M1019.3,128.4c0.1-0.5,0.2-1,0.4-1.4
	s0.4-0.8,0.8-1.1c0.3-0.3,0.7-0.6,1.1-0.7c0.5-0.2,1-0.2,1.5-0.2c0.9,0,1.8,0.3,2.4,0.9c0.7,0.7,1.1,1.6,1.2,2.6L1019.3,128.4z
	 M1040,122.2c-0.8,0-1.6,0.1-2.3,0.5c-0.7,0.4-1.3,1-1.7,1.7v-1.8h-2.8v14.1h2.8V129c0-0.5,0.1-1.1,0.2-1.6c0.1-0.4,0.4-0.9,0.7-1.2
	c0.3-0.3,0.7-0.6,1.1-0.7c0.4-0.2,0.9-0.3,1.3-0.2c0.4,0,0.8,0,1.2,0.1c0.2,0,0.4,0.1,0.6,0.2l0.9-2.9c-0.2-0.1-0.5-0.1-0.8-0.2
	C1040.9,122.2,1040.4,122.2,1040,122.2L1040,122.2z M1068.6,124.3c-0.5-0.6-1.1-1.1-1.8-1.5c-0.8-0.4-1.7-0.6-2.6-0.6
	c-1.9,0-3.7,0.7-5,2.1c-0.6,0.7-1.2,1.5-1.5,2.3c-0.7,1.9-0.7,4.1,0,6c0.3,0.9,0.8,1.7,1.5,2.3c1.3,1.4,3.1,2.1,5,2.1
	c0.9,0,1.8-0.2,2.6-0.6c0.7-0.4,1.3-0.9,1.8-1.5v1.7h3.1v-14.1h-3.1V124.3z M1068.5,131.4c-0.2,0.5-0.5,1-0.9,1.4s-0.8,0.7-1.3,0.9
	s-1.1,0.4-1.7,0.3c-0.6,0-1.2-0.1-1.8-0.4c-0.5-0.2-1-0.6-1.3-1c-0.4-0.4-0.6-0.9-0.8-1.4c-0.2-0.6-0.3-1.2-0.3-1.8s0.1-1.2,0.3-1.8
	c0.2-0.5,0.5-1,0.8-1.4c0.4-0.4,0.8-0.8,1.3-1c1.1-0.5,2.4-0.5,3.5,0c0.5,0.2,1,0.6,1.3,1c0.4,0.4,0.7,0.9,0.9,1.4
	c0.2,0.6,0.3,1.2,0.3,1.8C1068.8,130.2,1068.7,130.8,1068.5,131.4L1068.5,131.4z M1047.4,126.4c0.4-0.4,0.9-0.7,1.4-0.9
	c0.6-0.2,1.1-0.3,1.7-0.3c0.7,0,1.3,0.1,1.9,0.3c0.5,0.2,1.1,0.5,1.5,0.9l1.5-2.5c-0.6-0.5-1.2-0.8-1.9-1.1c-1.9-0.7-4.1-0.7-6,0
	c-0.9,0.4-1.7,0.9-2.4,1.6c-0.7,0.7-1.2,1.5-1.6,2.3c-0.8,1.9-0.8,4,0,5.9c0.4,0.9,0.9,1.7,1.6,2.3c0.7,0.7,1.5,1.2,2.4,1.6
	c1.9,0.8,4.1,0.8,6,0c0.7-0.3,1.3-0.6,1.9-1.1l-1.5-2.5c-0.4,0.4-0.9,0.7-1.5,0.9s-1.3,0.3-1.9,0.3s-1.2-0.1-1.7-0.3s-1-0.5-1.4-0.9
	s-0.7-0.9-0.9-1.4c-0.4-1.2-0.4-2.5,0-3.7C1046.6,127.3,1047,126.8,1047.4,126.4L1047.4,126.4z M999.2,129.6
	c-1.1-0.7-2.3-1.2-3.6-1.3l-1.5-0.2c-0.3,0-0.6-0.1-0.9-0.2c-0.3-0.1-0.5-0.1-0.7-0.3c-0.2-0.1-0.4-0.2-0.5-0.4
	c-0.1-0.2-0.2-0.4-0.2-0.6c0-0.5,0.3-1,0.7-1.2c0.6-0.3,1.3-0.5,2-0.5c0.4,0,0.9,0,1.3,0.1c0.4,0.1,0.8,0.2,1.2,0.3
	c0.3,0.1,0.7,0.2,1,0.4c0.3,0.1,0.5,0.3,0.8,0.4l1.3-2.4c-0.8-0.5-1.7-0.9-2.6-1.1c-1-0.3-2.1-0.4-3.1-0.4c-0.8,0-1.6,0.1-2.4,0.3
	c-0.7,0.2-1.3,0.5-1.8,0.9s-0.9,0.9-1.2,1.4c-0.3,0.6-0.4,1.2-0.4,1.9c0,1.1,0.4,2.1,1.2,2.8c1,0.8,2.3,1.3,3.6,1.4l1.5,0.2
	c0.6,0.1,1.3,0.2,1.8,0.6c0.4,0.2,0.6,0.6,0.6,1c0,0.5-0.3,1-0.8,1.3c-0.7,0.4-1.6,0.5-2.4,0.5c-0.5,0-1,0-1.5-0.1
	c-0.4-0.1-0.8-0.2-1.2-0.3c-0.3-0.1-0.7-0.3-1-0.4c-0.3-0.2-0.6-0.3-0.8-0.6l-1.4,2.3c0.5,0.4,1,0.7,1.6,0.9
	c0.5,0.2,1.1,0.4,1.6,0.6c0.5,0.1,1,0.2,1.5,0.3c0.5,0,0.9,0.1,1.3,0.1c0.9,0,1.8-0.1,2.7-0.3c0.7-0.2,1.4-0.5,2-1
	c0.5-0.4,1-0.9,1.2-1.4c0.3-0.6,0.4-1.2,0.4-1.9C1000.6,131.3,1000.1,130.3,999.2,129.6L999.2,129.6z M909.5,107.5
	c-4.6,0-9.1,1.4-12.8,4.1c-3.7-2.7-8.2-4.1-12.8-4.1c-12.2,0-22,9.8-22,22s9.8,22,22,22c4.6,0,9.1-1.4,12.8-4.1
	c9.9,7.1,23.6,4.8,30.7-5.1c7.1-9.9,4.8-23.6-5.1-30.7C918.6,108.9,914.1,107.5,909.5,107.5L909.5,107.5z M895.5,146.4
	c-9.3,6.3-22,3.9-28.4-5.4c-6.3-9.3-3.9-22,5.4-28.4c6.9-4.7,16-4.7,23,0c-9.3,7.8-10.6,21.7-2.8,31
	C893.5,144.6,894.5,145.6,895.5,146.4z M909.5,149.9c-4.1,0-8.1-1.2-11.5-3.6c9.3-7.8,10.6-21.7,2.8-31c-0.8-1-1.8-2-2.8-2.8
	c9.3-6.3,22-3.9,28.3,5.4c2.3,3.4,3.5,7.4,3.5,11.5C929.9,140.8,920.8,149.9,909.5,149.9L909.5,149.9z"/>
<path class="st3" d="M1142.2,114.1l-12.8,31h-8.4l-6.3-24.7c-0.4-1.5-0.7-2.1-1.9-2.7c-2.5-1.2-5.1-2.1-7.8-2.6l0.2-0.9h13.5
	c1.8,0,3.4,1.3,3.7,3.2l3.3,17.9l8.2-21.1L1142.2,114.1z M1175,134.9c0-8.2-11.2-8.6-11.1-12.3c0-1.1,1.1-2.3,3.4-2.6
	c2.7-0.3,5.4,0.2,7.8,1.4l1.4-6.6c-2.4-0.9-4.9-1.4-7.4-1.4c-7.8,0-13.3,4.2-13.4,10.2c-0.1,4.5,3.9,6.9,6.9,8.4s4.1,2.5,4.1,3.9
	c0,2.1-2.5,3-4.7,3c-2.8,0-5.6-0.6-8.1-2l-1.4,6.8c2.8,1.1,5.8,1.7,8.8,1.6C1169.6,145.5,1175,141.3,1175,134.9 M1195.7,145h7.3
	l-6.4-31h-6.8c-1.5,0-2.8,0.9-3.4,2.3l-11.9,28.7h8.3l1.7-4.6h10.2L1195.7,145z M1186.8,134l4.2-11.6l2.4,11.6H1186.8z M1153.5,114
	l-6.5,31h-7.9l6.6-31H1153.5z"/>
<path class="st3" d="M1272.4,128.1V128c2.6-0.9,3.7-2.7,3.7-4.6s-1.2-3.6-2.9-4.4c-1.6-0.8-3.4-1.1-6.8-1.1c-2.3,0-4.6,0.1-6.9,0.5
	v21.2c1.9,0.2,3.9,0.4,5.8,0.3c4.6,0,7.4-0.7,9.1-1.9c1.6-1.1,2.5-2.8,2.5-4.7C1276.9,130.6,1274.9,128.7,1272.4,128.1z
	 M1264.6,121.9c0.8-0.1,1.6-0.2,2.4-0.2c2.4,0,3.8,0.8,3.8,2.4s-1.4,2.6-4.4,2.6h-1.8V121.9L1264.6,121.9z M1266.9,136.3
	c-0.7,0-1.5,0-2.2-0.1v-5.9h2c2.7,0,4.9,0.8,4.9,2.9C1271.6,135.3,1269.3,136.3,1266.9,136.3L1266.9,136.3z M1392,139.8h-5.3
	l-1.7-2.8c-0.6-1-1.2-2.1-1.6-2.7c-0.3,0.6-1,1.8-1.6,2.7l-1.7,2.8h-5.3l6.1-9.1l-5.1-7.7h5.2l0.8,1.4c0.6,1,1.2,2.1,1.6,2.7
	c0.3-0.6,1-1.7,1.6-2.7l0.8-1.4h5.3l-5.1,7.7L1392,139.8z M1286.6,122.6c-2.2,0-4.3,0.6-6.1,1.7l1.7,3.1c1.3-0.8,2.8-1.2,4.3-1.2
	c2,0,2.8,1,2.8,2.2v0.9c-1.1-0.5-2.3-0.7-3.5-0.7c-3.6,0-6.7,1.9-6.7,5.6c0,4.1,3.2,6,6.2,6c1.5,0,2.9-0.5,4-1.5v1.1h4.5v-11.3
	C1293.8,124.7,1291.1,122.6,1286.6,122.6L1286.6,122.6z M1289.3,134.9c-0.7,1-1.9,1.6-3.1,1.6c-1.9,0-2.6-1.1-2.6-2.2
	c0-1.4,0.9-2.1,2.7-2.1c1,0,2.1,0.2,3,0.7V134.9L1289.3,134.9z M1322.1,122.6c-2.2,0-4.3,0.6-6.1,1.7l1.7,3.1
	c1.3-0.8,2.8-1.2,4.3-1.2c2,0,2.8,1,2.8,2.2v0.9c-1.1-0.5-2.3-0.7-3.5-0.7c-3.6,0-6.7,1.9-6.7,5.6c0,4.1,3.2,6,6.2,6
	c1.5,0,2.9-0.5,4-1.5v1.1h4.5v-11.3C1329.3,124.7,1326.6,122.6,1322.1,122.6L1322.1,122.6z M1324.8,134.9c-0.7,1-1.9,1.6-3.1,1.6
	c-1.9,0-2.6-1.1-2.6-2.2c0-1.4,0.9-2.1,2.7-2.1c1,0,2.1,0.2,3,0.7V134.9L1324.8,134.9z M1312.1,129.1v10.7h-4.5v-9.6
	c0-2.7-1.4-3.4-2.9-3.4s-2.9,0.8-2.9,3.3v9.7h-4.5V123h4.5v1.1c1.1-1,2.6-1.5,4.1-1.5C1309.5,122.6,1312.1,124.5,1312.1,129.1
	L1312.1,129.1z M1357.3,129.2v10.6h-4.5v-9.4c0-2.7-1-3.6-2.7-3.6c-1.5,0-2.8,0.9-2.8,3.5v9.5h-4.5v-9.4c0-2.6-1-3.6-2.7-3.6
	s-2.8,0.9-2.8,3.5v9.5h-4.5V123h4.5v1.1c1.1-1,2.6-1.5,4.1-1.5c1.7,0,3.4,0.8,4.4,2.2c1.4-1.4,3.3-2.1,5.3-2.2
	C1354.7,122.6,1357.3,124.7,1357.3,129.2L1357.3,129.2z M1367.5,122.6c-4.3,0-7.6,3.6-7.6,8.8c0,5.3,3.1,8.8,8,8.8
	c2.3,0,4.6-1,6.1-2.7l-2.7-2.5c-0.9,1-2.1,1.5-3.4,1.5c-1.9,0-3.5-1.6-3.5-3.5c0,0,0,0,0-0.1h10.3c0.1-0.5,0.1-0.9,0.1-1.4
	C1374.8,126.2,1372,122.6,1367.5,122.6L1367.5,122.6z M1364.5,129.5c0-1.6,1.3-3,2.9-3c2,0,2.8,1.5,3,3H1364.5z M1246.4,128.5
	c-1.4-0.4-2.8-0.8-4.1-1.2c0.7-0.8,1.9-2.3,2.8-3.5c1.7-1.6,1.9-4.2,0.4-6c-1.2-2-2.8-3.7-4.7-5.1c-1.2-0.8-3-2-4.7-2
	c-1.1,0-2.1,0.5-2.7,1.4c-0.8,1.1-1.7,2.3-2.4,3.5c-0.6-0.9-1.6-2.5-2.5-3.7c-1.3-1.8-2.4-2.5-4-2.5c-2.9,0-6.3,1.9-8,3.1
	c-1.4,1-3.5,2.7-3.5,4.8c0,0.7,0.3,1.4,0.7,2c0.8,1.2,1.7,2.3,2.6,3.3c-1.1,0.3-2.9,0.8-4.3,1.2c-2.8,0.9-4,2.2-4,5.9
	c0,1.9,0.3,3.8,0.9,5.6c0.7,2.1,2.2,5.8,5.6,4.7c1.4-0.4,2.8-0.9,4-1.4c-0.1,1.1-0.2,2.9-0.2,4.4c0,2.9,0.8,4,3.2,5.1
	c2.2,0.9,4.5,1.4,6.8,1.3c2.3,0,6.3-0.3,6.3-3.8c0-1.4,0-2.9-0.1-4.2c1,0.4,2.8,1.1,4.2,1.5c0.8,0.3,1.6,0.4,2.4,0.5
	c1.3,0,2.3-0.6,3.5-1.9c2.1-2.3,4.1-6.6,4.1-9.6C1248.9,130.4,1247.9,128.9,1246.4,128.5L1246.4,128.5z M1221.4,118.4
	c2.1-1.5,4.7-2.3,7.3-2.3c0.6,0,1.3,0,1.9,0.1c-1,1.3-1.7,2.8-2.1,4.4c-0.3-0.9-1.2-1.4-2.1-1.3c-1.7,0-3.4,1.1-4.7,1.1
	c-0.6,0-1.1-0.4-1.1-1C1220.7,119.1,1221,118.6,1221.4,118.4L1221.4,118.4z M1218.3,131.3c0,1.2-0.1,2-0.8,2.2
	c-0.5,0.2-1.1,0-1.4-0.9c-1-3.1-0.7-6.5,0.8-9.3c1,1.3,2.2,2.5,3.6,3.3c-0.2,0-0.4,0-0.6,0.1
	C1218.1,127.2,1218.2,129.7,1218.3,131.3L1218.3,131.3z M1228,142c-3.3,0-6.4-1.3-8.8-3.6c1-0.4,2-0.8,2.9-1.4c0.5-0.3,1-0.6,1.4-1
	c-0.1,0.2-0.1,0.3-0.1,0.5c0,1.9,2.5,2.5,4,2.9c1.2,0.4,1.9,0.8,1.9,1.5C1229.3,141.5,1229,142,1228,142z M1233.1,135.4
	c-0.7-0.7-2-1.1-4.4-1.1c-2.2,0-3.9,0.3-4.7,1.1c0.2-0.5,0.3-1,0.3-1.6c0-1-0.2-2-0.6-2.9c-0.7-2-1.5-3.5-2.5-4.1
	c1,0.1,2.3-0.2,4.2-1.6c1.8-1.3,2.9-2.5,3.1-3.6c0.2,1,0.9,2.1,2.9,3.5c1.8,1.3,3.3,2,4.4,1.8c-0.9,0.5-1.7,1.5-2.4,3.8
	c-0.4,1.1-0.6,2.2-0.7,3.3C1232.8,134.4,1232.9,134.9,1233.1,135.4L1233.1,135.4z M1239.1,136.9c-1.2,1.6-2.8,2.9-4.6,3.9
	c-0.1-1.1-0.2-2.1-0.4-3.1c-0.1-0.6-0.3-1.1-0.6-1.7c0.2,0.1,0.3,0.2,0.5,0.2c1.8,0.6,3.2-1.6,4.1-2.8c0.6-0.8,1.1-1.4,1.7-1.4
	s1,0.4,1,1C1240.6,134.4,1240,135.8,1239.1,136.9L1239.1,136.9z M1237.4,126.5c-0.3,0-0.5,0-0.8,0.1c0.5-0.3,0.8-0.9,0.8-1.5
	c0-1.3-1.1-2.6-1.8-3.5c-0.4-0.5-0.7-1.1-0.8-1.7c0-0.6,0.4-1,1-1c0.3,0,0.7,0.1,0.9,0.3c2.6,1.9,4.4,4.8,4.9,8
	C1240.3,126.7,1238.9,126.5,1237.4,126.5L1237.4,126.5z"/>
<path class="st3" d="M1502.8,130.7c-0.5-0.7-1.2-1.2-2-1.5c-0.4-0.2-0.8-0.4-1.2-0.5c1.1-0.5,2-1.3,2.6-2.2c0.6-1,0.8-2.1,0.8-3.3
	c0-1.1-0.2-2.2-0.7-3.2c-0.3-0.6-0.7-1.2-1.3-1.7c-0.8-0.7-1.8-1.2-2.8-1.4c-1.2-0.3-2.4-0.4-3.6-0.4h-7.4v25.9h8
	c1.2,0,2.4-0.1,3.5-0.4c0.8-0.2,1.5-0.5,2.2-0.9c1-0.6,1.8-1.4,2.3-2.4c0.6-1.1,0.9-2.4,0.8-3.6c0-1-0.1-1.9-0.5-2.8
	C1503.5,131.6,1503.2,131.1,1502.8,130.7z M1490,118.9h4.6c0.7,0,1.5,0.1,2.2,0.2c0.5,0.1,0.9,0.3,1.4,0.5c0.6,0.3,1.1,0.7,1.4,1.3
	c0.4,0.7,0.5,1.5,0.5,2.3c0,0.7-0.1,1.4-0.4,2.1c-0.2,0.4-0.5,0.7-0.8,1c-0.5,0.5-1.2,0.8-1.9,1c-0.8,0.2-1.7,0.3-2.5,0.3h-4.6v-8.7
	C1489.9,118.9,1490,118.9,1490,118.9z M1500.9,137.2c-0.2,0.4-0.5,0.8-0.8,1.2c-0.6,0.5-1.3,0.9-2,1.1c-0.9,0.3-1.9,0.4-2.8,0.4
	h-5.2V130h4.8c0.9,0,1.9,0.1,2.8,0.3c0.6,0.1,1.1,0.3,1.6,0.6c0.7,0.3,1.2,0.9,1.6,1.5C1501.5,133.9,1501.5,135.6,1500.9,137.2
	L1500.9,137.2z M1520.2,124.3c-0.6-0.6-1.4-1-2.3-1.3c-1-0.3-2-0.4-3-0.4c-2.5-0.1-4.9,0.6-7.1,1.9c1,2.1,2,1.6,3.4,1
	c1.1-0.4,2.3-0.7,3.5-0.6c0.6,0,1.2,0.1,1.8,0.3c0.3,0.1,0.7,0.2,1,0.4c0.4,0.3,0.8,0.6,1,1.1c0.3,0.6,0.4,1.2,0.4,1.8v2.8
	c-1.4-0.3-2.9-0.5-4.4-0.4c-1,0-2.1,0.1-3.1,0.3c-0.7,0.2-1.3,0.4-1.9,0.7c-1.8,0.9-2.9,2.8-2.8,4.8c0,0.9,0.1,1.7,0.5,2.5
	c0.5,1.1,1.3,1.9,2.3,2.5c1.1,0.6,2.3,0.9,3.6,0.9l0,0c1.3,0,2.7-0.2,3.9-0.8c0.7-0.3,1.4-0.8,1.9-1.3c0,0.3,0,0.5,0.1,0.7
	c0,0.2,0.1,0.4,0.2,0.6c0.1,0.1,0.1,0.3,0.2,0.4c0.2,0.1,0.4,0.2,0.6,0.3s0.4,0.1,0.7,0.1h0.9v-14c0-0.9-0.2-1.8-0.5-2.6
	C1520.9,125.2,1520.6,124.7,1520.2,124.3L1520.2,124.3z M1519,137.5c-0.6,0.8-1.4,1.4-2.2,1.9c-1,0.6-2.2,0.8-3.4,0.8
	c-0.5,0-1.1-0.1-1.6-0.2c-0.4-0.1-0.7-0.2-1-0.4c-0.4-0.3-0.8-0.7-1-1.1c-0.3-0.6-0.4-1.2-0.4-1.9c0-0.6,0.1-1.1,0.4-1.6
	c0.2-0.3,0.4-0.6,0.7-0.9c0.5-0.4,1.1-0.7,1.7-0.8c0.8-0.2,1.6-0.3,2.4-0.3c1.4,0,2.9,0.2,4.3,0.5L1519,137.5z M1540.3,124.2
	c-0.5-0.5-1.1-1-1.8-1.2s-1.4-0.3-2.2-0.3c-1.6,0-3.2,0.4-4.7,1c-1.1,0.5-2.1,1-3,1.7v-0.2c0-0.3,0-0.7,0-1c0-0.2-0.1-0.4-0.1-0.6
	c0-0.1-0.1-0.2-0.2-0.3c-0.1-0.1-0.1-0.1-0.2-0.2s-0.3-0.1-0.4-0.1h-0.4h-1.3v19.4h2.7V128c1-0.8,2.1-1.4,3.2-2
	c1.2-0.6,2.4-0.9,3.8-0.9c0.5,0,0.9,0,1.3,0.1c0.3,0.1,0.5,0.2,0.8,0.3c0.3,0.2,0.6,0.6,0.8,0.9c0.2,0.6,0.3,1.2,0.3,1.8v14h2.7V128
	c0-0.9-0.1-1.8-0.4-2.6C1541,125,1540.7,124.6,1540.3,124.2L1540.3,124.2z M1576.1,124.2c-1.5-1.1-3.4-1.6-5.2-1.5
	c-1.3,0-2.5,0.2-3.7,0.7c-1.6,0.7-3,1.9-3.9,3.4c-1,1.8-1.5,3.8-1.4,5.8c0,1.4,0.2,2.8,0.6,4.1c0.6,1.7,1.7,3.2,3.1,4.3
	c1.5,1,3.4,1.5,5.2,1.5c1.3,0,2.5-0.2,3.7-0.7c1.6-0.7,3-1.9,3.9-3.4c1-1.8,1.5-3.8,1.4-5.8c0-1.4-0.2-2.8-0.6-4.1
	C1578.7,126.8,1577.6,125.3,1576.1,124.2L1576.1,124.2z M1576.7,135.9c-0.7,2.7-3.1,4.5-5.9,4.3c-0.9,0-1.8-0.2-2.7-0.5
	c-1.2-0.5-2.1-1.4-2.7-2.5c-0.7-1.4-1-3-1-4.6c0-1.1,0.1-2.2,0.4-3.3c0.4-1.3,1.1-2.4,2.2-3.2c1.1-0.8,2.4-1.2,3.7-1.1
	c0.9,0,1.8,0.2,2.6,0.5c1.2,0.5,2.1,1.4,2.7,2.6c0.7,1.4,1,3,1,4.5C1577.2,133.7,1577,134.8,1576.7,135.9L1576.7,135.9z
	 M1608.2,124.2c-0.5-0.5-1.1-0.9-1.7-1.2c-0.7-0.2-1.4-0.3-2.1-0.3c-1.5,0-3,0.4-4.3,1c-1,0.5-2,1.1-2.9,1.8
	c-0.1-0.3-0.3-0.6-0.5-0.9c-0.5-0.6-1.1-1.1-1.8-1.4c-0.7-0.3-1.5-0.4-2.3-0.4c-1.5,0-3,0.3-4.3,1c-0.9,0.4-1.7,0.9-2.6,1.5l0,0
	c0-0.3,0-0.7,0-1c0-0.2-0.1-0.4-0.1-0.6c0-0.1-0.1-0.2-0.2-0.3c-0.1-0.1-0.1-0.1-0.2-0.2s-0.3-0.1-0.4-0.1h-0.4h-1.3v19.4h2.7v-14.6
	c0.9-0.7,1.8-1.4,2.8-1.9c1.1-0.6,2.3-0.8,3.5-0.9c0.4,0,0.8,0,1.2,0.1c0.3,0.1,0.5,0.2,0.7,0.3c0.3,0.2,0.6,0.5,0.7,0.9
	c0.2,0.5,0.3,1.1,0.3,1.7v14.2h2.7v-14.5c0.9-0.7,1.8-1.3,2.8-1.9s2.2-0.9,3.4-0.9c0.4,0,0.9,0,1.3,0.1c0.3,0.1,0.5,0.2,0.7,0.3
	c0.3,0.2,0.6,0.5,0.7,0.9c0.2,0.6,0.3,1.1,0.2,1.7v14.2h2.6v-14.6c0-0.8-0.1-1.5-0.4-2.2C1608.8,125,1608.5,124.5,1608.2,124.2z
	 M1606.7,142.3L1606.7,142.3z M1467.8,116.5h-4.9l-7.8,25.8h4l1.7-5.6h9.3l1.7,5.6h6.9l-7.8-23.2
	C1470.2,117,1469.8,116.5,1467.8,116.5z M1461.9,133l3.5-11.8l3.6,11.8H1461.9z M1432,126.7l1.3-1.9c2.7-4,0.8-8.3-4.4-8.3h-11.2
	v25.8h10.8C1438,142.3,1440.8,131.2,1432,126.7L1432,126.7z M1425.6,138.9h-1.8v-19h3.3c1.6,0,2.9,1.3,3,2.9c0,0.7-0.2,1.3-0.6,1.9
	l-2.1,3.2c2.2,0.5,3.7,2.3,3.7,5.5C1431,137.2,1428.6,138.9,1425.6,138.9L1425.6,138.9z M1410.3,126.7l1.2-1.9
	c2.7-4,0.8-8.3-4.4-8.3H1396v25.9h10.8C1416.3,142.3,1419.1,131.2,1410.3,126.7L1410.3,126.7z M1403.9,138.9h-1.8v-19h3.3
	c1.6,0,3,1.3,3,2.9c0,0.7-0.2,1.3-0.6,1.9l-2.2,3.2c2.2,0.5,3.7,2.3,3.7,5.5C1409.2,137.2,1406.9,138.9,1403.9,138.9L1403.9,138.9z
	 M1454,116.5l-5.8,19.6l-4.9-16.3c-0.9-2.9-1.4-3.4-3.1-3.4h-4.5l8.4,25.8h6.2l7.8-25.8L1454,116.5z M1556.9,139.5
	c-1,0.5-2.1,0.7-3.2,0.7c-0.9,0-1.9-0.2-2.7-0.5c-0.6-0.2-1.1-0.6-1.6-1c-0.7-0.7-1.3-1.5-1.6-2.5c-0.4-1.2-0.6-2.4-0.6-3.6
	c0-1.1,0.2-2.2,0.5-3.2c0.8-2.7,3.2-4.4,6-4.3c1,0,2,0.2,2.9,0.5c1.4,0.6,2.3,1.3,3.3-0.8c-1.7-1.4-4-2.1-6.2-2
	c-1.3,0-2.5,0.2-3.7,0.7c-1.7,0.7-3.1,1.9-4,3.4c-1,1.8-1.5,3.8-1.5,5.8c0,1.4,0.2,2.8,0.6,4.1c0.5,1.7,1.6,3.2,3.1,4.3
	c1.6,1.1,3.4,1.6,5.3,1.5l0,0c1.4,0,2.8-0.3,4.1-0.8l0.4-0.2c0.8-0.4,1.5-0.9,2.2-1.5C1559.1,138,1558.2,138.8,1556.9,139.5
	L1556.9,139.5z M1627.3,125.5c-0.7-0.9-1.6-1.7-2.7-2.2c-1.1-0.4-2.4-0.7-3.6-0.7s-2.4,0.2-3.4,0.7c-1.6,0.7-2.9,1.9-3.8,3.5
	c-1,1.8-1.4,3.8-1.4,5.8c0,1.4,0.2,2.7,0.6,4c0.5,1.7,1.6,3.2,3,4.3c1.6,1.1,3.5,1.6,5.4,1.5l0,0c1.4,0,2.9-0.2,4.2-0.7
	c1.2-0.4,2.3-1.1,3.2-2c-1.2-1.8-1.9-1.1-3.4-0.4c-1.2,0.5-2.6,0.8-3.9,0.8c-1,0-2-0.1-2.9-0.5c-0.6-0.2-1.1-0.6-1.6-1
	c-0.7-0.6-1.2-1.5-1.5-2.4c-0.3-1-0.5-2.1-0.5-3.2h13.9v-0.6c0-0.2,0-0.5,0-0.8c0-1.4-0.2-2.7-0.6-4
	C1628.2,127,1627.8,126.2,1627.3,125.5L1627.3,125.5z M1615.2,130.9c0.1-0.8,0.3-1.6,0.6-2.4c0.4-1.1,1.1-2,2.1-2.7
	c0.9-0.6,2-0.9,3.2-0.9c0.7,0,1.5,0.1,2.2,0.3c0.5,0.2,0.9,0.4,1.3,0.8c0.6,0.5,1.1,1.2,1.3,2c0.3,0.9,0.5,1.9,0.5,2.9H1615.2
	L1615.2,130.9z M1640.3,122.8c-1.3,0-2.6,0.4-3.7,1.1c-0.7,0.4-1.3,0.9-1.9,1.5c0-0.4,0-0.7-0.1-1.1c0-0.2,0-0.4-0.1-0.6
	c0-0.1-0.1-0.3-0.2-0.4s-0.1-0.1-0.2-0.2s-0.3-0.1-0.4-0.2h-0.4h-1.3v19.4h2.7v-14c0.7-0.8,1.5-1.6,2.4-2.2h0.1
	c0.8-0.5,1.7-0.8,2.6-0.9c1.2-0.1,2.1-0.3,2.2-2.2C1641.5,122.9,1640.9,122.8,1640.3,122.8L1640.3,122.8z"/>
<path class="st3" d="M1729.1,109h-80c-1.6,0.1-2.9,1.4-3.1,3l0.1,1h86v-1C1732,110.4,1730.7,109.1,1729.1,109z M1646,146.6
	c0,1.5,1.7,3.4,3.1,3.4h80c1.5,0,2.9-1.9,2.9-3.4l0.1-1.6h-86L1646,146.6z M1704.1,124.6l-4.3,5l6.7,8.1c1.6,2.5-1.5,5-3.4,2.7
	l-6.2-7.5l-6.1,7.1c-1.9,2.3-5-0.3-3.3-2.7l6.6-7.7l-4.3-5.2l2.8-3.5l4.4,5.3l3.8-4.4c1.9-2.2,3.9-5.3,6.3-6.8h-61v28h14
	c6.6,0,9.8-3.6,14.1-9l4.1-5.1l-6.9-8c-1.7-2.5,1.3-5,3.3-2.8l6.4,7.4l5.9-7.2c1.9-2.3,5,0.2,3.4,2.7l-6.4,7.9l4.4,5.1l-2.8,3.3
	l-4.4-5l-3.7,4.5c-1.8,2.4-4,4.5-6.5,6.2h61v-28h-14C1711.5,114.8,1708.6,119.4,1704.1,124.6L1704.1,124.6z M1671.3,128.8
	c0,6.2-5.1,11.2-11.4,11.2c-6.2,0-11.2-5.1-11.2-11.4c0-6.2,5.1-11.2,11.3-11.2C1666.3,117.4,1671.3,122.5,1671.3,128.8
	L1671.3,128.8z M1730.2,128.8c-0.1,6.2-5.2,11.2-11.4,11.2c-6.2-0.1-11.2-5.2-11.2-11.4c0.1-6.2,5.1-11.2,11.3-11.2
	C1725.2,117.4,1730.2,122.5,1730.2,128.8L1730.2,128.8z M1660,121.6c-4,0-7.2,3.2-7.3,7.1c0,4,3.2,7.2,7.1,7.3c4,0,7.2-3.2,7.3-7.1
	c0,0,0,0,0-0.1C1667.2,124.8,1664,121.6,1660,121.6z M1718.9,136c4,0,7.2-3.2,7.3-7.1c0-4-3.2-7.2-7.1-7.3c-4,0-7.2,3.2-7.3,7.1
	c0,0,0,0,0,0.1C1711.7,132.7,1714.9,136,1718.9,136z"/>
<path class="st3" d="M974.6,14.6c0,4.4-3.6,8-8,8s-8-3.6-8-8s3.6-8,8-8C971,6.6,974.6,10.2,974.6,14.6z M983.7,29.4
	c0-0.6-0.2-1.2-0.7-1.6l-6.1-6.1c3.9-5.7,2.5-13.5-3.2-17.5s-13.5-2.5-17.5,3.2c-3.9,5.7-2.5,13.5,3.2,17.5c4.3,3,10,3,14.3,0
	l6.1,6.1c0.4,0.4,1,0.7,1.6,0.7C982.7,31.7,983.7,30.7,983.7,29.4z"/>
<path class="st3" d="M1062.9,6.3c0.4-0.4,0.4-1,0-1.4l0,0l-2.6-2.6c-0.4-0.4-1-0.4-1.4,0l-8.3,8.3l-8.3-8.3c-0.4-0.4-1-0.4-1.4,0
	l-2.6,2.6c-0.4,0.4-0.4,1,0,1.4l0,0l11.6,11.6c0.4,0.4,1,0.4,1.4,0L1062.9,6.3z"/>
<path class="st2" d="M1104.9,6.3c0.4-0.4,0.4-1,0-1.4l0,0l-2.6-2.6c-0.4-0.4-1-0.4-1.4,0l-8.3,8.3l-8.3-8.3c-0.4-0.4-1-0.4-1.4,0
	l-2.6,2.6c-0.4,0.4-0.4,1,0,1.4l0,0l11.6,11.6c0.4,0.4,1,0.4,1.4,0L1104.9,6.3z"/>
<path class="st3" d="M1012.5,15.3c0.4-0.4,0.4-1,0-1.4l-12.1-11.6c-0.4-0.4-1.1-0.4-1.5,0l-2.7,2.6c-0.4,0.4-0.4,1,0,1.4l8.6,8.3
	l-8.6,8.3c-0.4,0.4-0.4,1,0,1.4l2.7,2.6c0.4,0.4,1.1,0.4,1.5,0L1012.5,15.3z"/>
<path class="st4" d="M1149.7,6.1c0-0.5-0.2-0.9-0.5-1.2l-2.4-2.4c-0.7-0.7-1.8-0.7-2.4,0l-11.7,11.7l-5.2-5.2
	c-0.7-0.7-1.8-0.7-2.4,0l-2.4,2.4c-0.7,0.7-0.7,1.8,0,2.4l6.5,6.5l2.4,2.4c0.7,0.7,1.8,0.7,2.4,0l2.4-2.4l12.9-12.9
	C1149.5,7.1,1149.7,6.6,1149.7,6.1z"/>
<path class="st3" d="M1198.6,29.3c0-0.2,0-0.4-0.1-0.5c-0.2-0.5-1.4-1.1-1.9-1.3c-1.4-0.8-2.8-1.5-4.2-2.4c-0.6-0.4-1.4-1.1-2.2-1.1
	c-1.5,0-3.7,4.4-5,4.4c-0.8-0.2-1.5-0.5-2.1-1c-4.2-2.3-7.7-5.8-10-10c-0.5-0.6-0.8-1.3-1-2.1c0-1.3,4.4-3.5,4.4-5
	c0-0.8-0.7-1.6-1.1-2.2c-0.8-1.4-1.6-2.8-2.4-4.2c-0.2-0.5-0.8-1.7-1.3-1.9c-0.2-0.1-0.3-0.1-0.5-0.1c-1.2,0.1-2.3,0.3-3.4,0.8
	c-1.2,0.5-2,1.9-2.6,3c-0.8,1.4-1.2,3-1.2,4.6c0,2.3,0.9,4.4,1.7,6.4c0.5,1.5,1.2,2.9,2,4.3c3.1,4.7,7.1,8.7,11.8,11.8
	c1.4,0.8,2.8,1.5,4.3,2c2.1,0.8,4.2,1.7,6.4,1.7c1.6,0,3.2-0.4,4.6-1.2c1.1-0.6,2.5-1.4,3-2.6C1198.2,31.6,1198.5,30.5,1198.6,29.3z
	"/>
<path class="st3" d="M1759.1,111c0,5.1,8.5,10.7,8.5,16.4c0,0.4-0.1,0.8-0.2,1.2c7.9,1.7,13.5,5.6,13.5,10.2
	c0,6.2-10,11.3-22.4,11.3c-12.7,0-22.5-5-22.5-11.1c0-4.6,6.1-8.4,13.4-10.3c0,2.6,8.3,10.6,8.6,13.9c0.1,0.4,0.1,0.7,0,1.1
	c1.8-1,1.8-3.9,1.8-3.9c0-7.1-8.1-10.2-8.1-17.2c0-2.7,1.3-4.7,2.4-5.2v1.9c0,5.1,8.8,10.7,8.8,15.3v1.4c2-0.8,2-4.6,2-4.6
	c0-6.4-8.2-9.9-8.2-17.2c0-2.7,1.2-4.7,2.4-5.2L1759.1,111z"/>
<path class="st3" d="M1798.7,148.1c-2.5,0-5-0.4-7.4-1.2v-7.5h1.1c0.6,4,3.5,7,6.9,7s5.8-1.9,5.8-4.9c0-3.2-3.2-4.7-5.3-5.8
	l-3.1-1.6c-2.9-1.5-5.2-3.9-5.2-7.2c0-4.2,3.1-7.8,8.9-7.8c2.5,0,5,0.5,7.3,1.3v6.7h-1.1c-0.6-3.6-2.6-6.4-6.6-6.4
	c-3,0-4.7,2.1-4.7,4.2c0,2.7,1.9,4,4.1,5.1l3.1,1.6c2.8,1.4,6.2,3.8,6.2,7.9C1808.7,144.7,1805.1,148.1,1798.7,148.1"/>
<path class="st3" d="M1818.4,139.9c-1.3,0.4-2.2,1.6-2.3,2.9c-0.1,1.4,1,2.6,2.4,2.7c0.1,0,0.2,0,0.2,0c1.2-0.1,2.4-0.6,3.3-1.4
	v-5.9L1818.4,139.9z M1816.8,147.9c-2.3,0.1-4.3-1.6-4.4-3.9c0-0.2,0-0.4,0-0.5c0-1.9,1.4-3.4,4.4-4.5l5.3-1.9v-1.7
	c0-2.5-1.1-4.1-2.9-4.1c-1.2,0-2.3,0.6-2.9,1.6c-0.2,0.4-0.3,0.8-0.3,1.3s0.2,1,0.4,1.5l-2.6,1.2c-0.4-0.7-0.7-1.4-0.7-2.2
	c0-0.2,0-0.3,0-0.4c0.2-1.4,1.4-2.4,3.1-3.4c1.2-0.8,2.6-1.2,4-1.3c4.9,0,5.8,4,5.8,5.3v8.2c0,1.3,0.1,2.1,1.2,2.1
	c0.3,0,0.6,0,0.9-0.2l0.9-0.3v1.2l-5.5,2.1c-0.8-0.7-1.3-1.6-1.4-2.6C1820.9,146.5,1818.7,147.9,1816.8,147.9"/>
<path class="st3" d="M1830.3,147.6v-0.9l1.3-0.2c0.8-0.1,1.3-0.8,1.3-1.6v-10.6c0-0.9-0.4-1.4-1.2-1.4c-0.3,0-0.6,0.1-0.9,0.2
	l-0.5,0.2V132l5.6-2.5h0.8v2.9c1.4-1.7,3.4-2.8,5.6-2.9c4,0,5.9,2.9,5.9,6.3v9c0,0.8,0.6,1.4,1.4,1.6l1.3,0.2v0.9h-9.3v-0.9l1.3-0.2
	c0.8-0.1,1.4-0.8,1.4-1.6v-9c0-1.2-0.3-3.9-3.4-3.9c-1.5,0.1-2.9,0.8-4,1.9v11c0,0.8,0.6,1.4,1.4,1.6l1.3,0.2v0.9L1830.3,147.6z"/>
<path class="st3" d="M1864.5,132h-5.5v9.9c0,2.2,1.1,3.4,2.8,3.4c1,0,1.9-0.3,2.7-0.8l0.4,1l-3.5,2.3c-0.3,0.1-0.7,0.1-1.1,0.1
	c-3.4,0-5.2-2-5.2-6.3V132h-2.9v-1c2.6-1.1,4.8-3.2,6-5.8h0.8v5h6.2L1864.5,132z"/>
<path class="st3" d="M1872.7,139.9c-1.3,0.4-2.2,1.6-2.3,2.9c-0.1,1.4,1,2.6,2.4,2.7c0.1,0,0.2,0,0.2,0c1.2-0.1,2.4-0.6,3.3-1.4
	v-5.9L1872.7,139.9z M1871.1,147.9c-2.3,0.1-4.3-1.6-4.4-3.9c0-0.2,0-0.4,0-0.5c0-1.9,1.4-3.4,4.4-4.5l5.3-1.9v-1.7
	c0-2.5-1.1-4.1-2.9-4.1c-1.2,0-2.3,0.6-2.9,1.6c-0.2,0.4-0.3,0.8-0.3,1.3s0.2,1,0.4,1.5l-2.6,1.2c-0.4-0.7-0.7-1.4-0.7-2.2
	c0-0.2,0-0.3,0-0.4c0.2-1.4,1.4-2.4,3.1-3.4c1.2-0.8,2.6-1.2,4-1.3c4.9,0,5.8,4,5.8,5.3v8.2c0,1.3,0.1,2.1,1.2,2.1
	c0.3,0,0.6,0,0.9-0.2l0.9-0.3v1.2l-5.5,2.1c-0.8-0.7-1.3-1.6-1.4-2.6C1875.2,146.5,1872.9,147.9,1871.1,147.9"/>
<path class="st3" d="M1884.6,147.6v-0.9l1.3-0.2c0.8-0.1,1.3-0.8,1.3-1.6v-10.6c0-0.9-0.4-1.4-1.2-1.4c-0.3,0-0.6,0.1-0.9,0.2
	l-0.5,0.2V132l5.6-2.5h0.8v2.9c1.4-1.7,3.4-2.8,5.6-2.9c4,0,5.9,2.9,5.9,6.3v9c0,0.8,0.6,1.4,1.4,1.6l1.3,0.2v0.9h-9.3v-0.9l1.3-0.2
	c0.8-0.1,1.4-0.8,1.4-1.6v-9c0-1.2-0.3-3.9-3.4-3.9c-1.5,0.1-2.9,0.8-4,1.9v11c0,0.8,0.6,1.4,1.4,1.6l1.3,0.2v0.9L1884.6,147.6z"/>
<path class="st3" d="M1916.9,131.2c-2.8,0-5.7,1.8-5.7,7.1c0,4.4,2.2,7.2,5.6,7.2c1.5,0.1,2.9-0.6,3.7-1.9v-10.3
	C1919.9,131.9,1918.4,131.1,1916.9,131.2 M1915.2,148c-3.7,0-8.1-2.8-8.1-8.8c-0.1-5.2,4-9.5,9.2-9.6c0.1,0,0.1,0,0.2,0
	c1.4,0,2.7,0.2,4,0.8v-9.1c0-1-0.5-1.2-1.1-1.2c-0.4,0-0.7,0.1-1.1,0.2l-0.8,0.3v-1.2l6.1-2.6h0.8V143c0,1.5,0.2,2.4,1.3,2.4
	c0.3,0,0.6,0,0.9-0.2l0.9-0.3v1.2l-5.5,2.1c-0.8-0.7-1.3-1.6-1.5-2.6C1919.2,147,1917.2,148,1915.2,148"/>
<path class="st3" d="M1941.4,135.7L1941.4,135.7c0-3.1-1.6-4.5-3.6-4.5c-2.2,0-3.8,1.5-4.3,4.5H1941.4z M1933.4,137.3v0.2
	c0,5.3,2.9,7.9,6.7,7.9c1.8,0,3.6-0.7,5-1.8v1.6c-1.9,1.7-4.3,2.7-6.9,2.7c-6.1,0-8.8-4.6-8.8-9.1c-0.2-5,3.8-9.2,8.8-9.4h0.1
	c3.9-0.1,7.2,2.9,7.3,6.8c0,0.2,0,0.3,0,0.5v0.5L1933.4,137.3z"/>
<path class="st3" d="M1947.8,147.6v-0.9l1.3-0.2c0.8-0.1,1.3-0.8,1.3-1.6v-10.6c0-0.9-0.4-1.4-1.2-1.4c-0.3,0-0.6,0.1-0.9,0.2
	l-0.5,0.2V132l5.6-2.5h0.8v3.9c1.4-2.8,3.1-3.9,5-3.9c1.6,0,2,0.4,2,0.4v4.2h-0.8c-0.1-1-1.1-1.8-2.1-1.7c-1.7-0.1-3.3,1-3.9,2.7
	v9.8c0.1,0.8,0.7,1.4,1.5,1.6l1.9,0.2v0.9L1947.8,147.6L1947.8,147.6z"/>
<polygon class="st3" points="2112.9,115 2113.6,115 2114.2,115 2115.3,115.2 2116,115.3 2116.6,115.6 2117,115.9 2117.4,116.2 
	2117.9,116.8 2118.4,117.7 2118.7,118.6 2118.9,119.6 2118.9,143 2111.1,143 2111.1,123.6 2110.8,122.9 2110.2,122.4 2109.6,122.1 
	2108.8,122 2108.2,122.1 2107.4,122.5 2107,123.1 2106.7,123.8 2106.7,143 2098.7,143 2098.7,115.7 2106.7,115.7 2106.7,118.3 
	2107.7,117.5 2108.3,116.9 2108.8,116.5 2109.3,116.2 2110,115.8 2110.8,115.5 2111.7,115.2 "/>
<polygon class="st3" points="2030.1,115.7 2030.1,137 2035.8,137 2035.8,143 2022.1,143 2022.1,115.7 "/>
<polygon class="st3" points="2064.6,115.7 2067.6,133.1 2071,115.7 2077.2,115.7 2072,143 2060.1,143 2056.1,115.7 "/>
<polygon class="st3" points="2094.3,115.7 2094.3,121.8 2087.8,121.8 2087.8,126.8 2094.3,126.8 2094.3,132 2087.8,132 2087.8,137 
	2094.3,137 2094.3,143 2079.8,143 2079.8,115.7 "/>
<polygon class="st3" points="1998.4,126.8 1998.4,132.1 1989.1,132.1 1989.1,126.8 "/>
<polygon class="st3" points="2016.9,115.7 2016.9,121.8 2010.2,121.8 2010.2,126.8 2016.9,126.8 2016.9,132 2010.2,132 2010.2,137 
	2016.9,137 2016.9,143 2002.3,143 2002.3,115.7 "/>
<polygon class="st3" points="2053.2,115.7 2053.2,121.8 2046.5,121.8 2046.5,126.8 2053.2,126.8 2053.2,132 2046.5,132 2046.5,137 
	2053.2,137 2053.2,143 2038.6,143 2038.6,115.7 "/>
<polygon class="st3" points="1967.2,122.2 1976.5,122.2 1978.6,119.9 1979.8,118.8 1981.2,117.7 1982.4,116.8 1984,115.8 
	1967.2,115.8 "/>
<path class="st3" d="M1987.6,115.6c-5.2,1.3-10.3,6.3-11.8,10c-3.3,7.5-2.7,17.5-2.7,17.5s5.7,0,8.1,0c-0.1-7.1,0-11.5,1-14.9
	c1-3.4,5.5-5.7,5.5-5.7L1987.6,115.6L1987.6,115.6z"/>
<path class="st3" d="M2164.1,134.5h-0.3v2.6h0.3c0.7,0,1.3-0.6,1.3-1.3S2164.8,134.5,2164.1,134.5z"/>
<path class="st3" d="M2159.9,135.8c0,0.7,0.6,1.3,1.3,1.3h1.4v-2.6h-1.4C2160.5,134.5,2159.9,135.1,2159.9,135.8L2159.9,135.8z
	 M2162,135.8c0,0.5-0.4,0.9-0.9,0.9s-0.9-0.4-0.9-0.9s0.4-0.9,0.9-0.9S2162,135.3,2162,135.8L2162,135.8z"/>
<path class="st3" d="M2146.7,120.2c0.1-0.7-0.3-1.3-1-1.5l0.6-0.9c0.1-0.1,0.2-0.3,0.2-0.5c0-0.4-0.4-0.8-0.8-0.8h-0.9v5.2h0.5
	c0.8,0.1,1.4-0.5,1.5-1.3C2146.7,120.4,2146.7,120.3,2146.7,120.2z"/>
<path class="st3" d="M2161.6,128.3h-16c-0.6,0-1,0.4-1,1v13.5c0,0.6,0.4,1,1,1h16c0.6,0,1-0.4,1-1v-5.1h-1.4c-1,0-1.9-0.9-1.9-1.9
	s0.9-1.9,1.9-1.9h1.4v-4.6C2162.6,128.8,2162.1,128.3,2161.6,128.3z M2149.9,139.4c-0.1,0-0.2,0-0.4-0.1c-0.4-0.2-0.5-0.7-0.3-1.1
	l0,0c0.3-0.5,0.4-1.1,0.4-1.7s-0.1-1.2-0.4-1.7c-0.2-0.4,0-0.9,0.3-1.1s0.9,0,1.1,0.3l0,0c0.4,0.8,0.6,1.6,0.5,2.4
	c0,0.9-0.2,1.7-0.5,2.5C2150.5,139.2,2150.2,139.4,2149.9,139.4L2149.9,139.4z M2151.9,140.2c-0.4,0-0.8-0.3-0.8-0.8
	c0-0.1,0-0.3,0.1-0.4c0.5-0.8,0.7-1.6,0.6-2.5c0.1-0.9-0.2-1.7-0.6-2.5c-0.2-0.4-0.1-0.8,0.3-1.1c0.4-0.2,0.8-0.1,1.1,0.3
	c0.6,1,0.9,2.1,0.8,3.3c0.1,1.2-0.2,2.3-0.8,3.4C2152.4,140.1,2152.1,140.2,2151.9,140.2L2151.9,140.2z M2154,141.1
	c-0.2,0-0.3,0-0.4-0.1c-0.4-0.2-0.5-0.7-0.2-1.1c0.6-1,0.9-2.2,0.9-3.4s-0.3-2.4-0.9-3.4c-0.2-0.4-0.1-0.8,0.2-1.1
	c0.4-0.2,0.8-0.1,1.1,0.2l0,0c0.8,1.3,1.1,2.7,1.1,4.2c0.1,1.5-0.3,3-1.1,4.2C2154.5,141,2154.2,141.1,2154,141.1L2154,141.1z
	 M2156.6,141.6c-0.1,0.2-0.4,0.3-0.6,0.3s-0.3,0-0.4-0.1c-0.4-0.2-0.4-0.7-0.2-1.1l0,0c0.7-1.3,1.1-2.7,1.1-4.2s-0.4-2.9-1.1-4.2
	c-0.3-0.3-0.2-0.8,0.2-1.1c0.3-0.3,0.8-0.2,1.1,0.2c0,0,0,0,0,0.1c0.9,1.5,1.4,3.3,1.4,5.1C2158,138.3,2157.5,140.1,2156.6,141.6
	L2156.6,141.6z"/>
<path class="st3" d="M2152.8,120.2c0.1-0.7-0.3-1.3-1-1.5l0.6-0.9c0.3-0.3,0.2-0.9-0.1-1.1c-0.1-0.1-0.3-0.2-0.5-0.2h-0.9v5.2h0.5
	c0.8,0,1.4-0.5,1.5-1.3C2152.8,120.4,2152.8,120.3,2152.8,120.2z"/>
<path class="st3" d="M2170.1,109.1h-31.3c-2.7,0-4.8,2.2-4.8,4.8l0,0v31.3c0,2.7,2.2,4.8,4.8,4.8l0,0h31.3c2.7,0,4.8-2.2,4.8-4.8
	l0,0v-31.3C2174.9,111.2,2172.7,109.1,2170.1,109.1L2170.1,109.1z M2155.3,115.6c0.5,0,0.6,0.1,0.9,0.9l1.4,4.5l1.6-5.4h1.1
	l-2.2,7.1h-1.7l-2.3-7.1H2155.3L2155.3,115.6z M2149.1,115.6h3.1c0.7-0.1,1.5,0.4,1.6,1.1c0.1,0.4-0.1,0.8-0.3,1.2l-0.4,0.5
	c2.4,1.3,1.6,4.3-1,4.3h-3L2149.1,115.6L2149.1,115.6z M2143.1,115.6h3.1c0.7-0.1,1.5,0.4,1.6,1.1c0.1,0.4-0.1,0.8-0.3,1.2l-0.4,0.5
	c2.4,1.3,1.6,4.3-1,4.3h-3L2143.1,115.6L2143.1,115.6z M2164.2,137.7h-0.3v4.7c0,1.3-1.1,2.4-2.4,2.4h-15.6c-1.3,0-2.4-1.1-2.4-2.4
	v-12.8c0-1.3,1.1-2.4,2.4-2.4h15.6c1.3,0,2.4,1.1,2.4,2.4v4.2h0.3c1-0.1,2,0.7,2,1.8c0.1,1-0.7,2-1.8,2
	C2164.3,137.7,2164.2,137.7,2164.2,137.7L2164.2,137.7z M2164.2,122.7l-0.5-1.5h-2.7l-0.5,1.5h-1.1l2.2-7.1h1.4
	c0.6,0,0.7,0.1,0.9,0.7l2.2,6.4H2164.2L2164.2,122.7z"/>
<polygon class="st3" points="2161.3,120.1 2163.3,120.1 2162.3,116.9 "/>
<path class="st3" d="M2211.8,124.1h-2.1l-3.3,10.9h1.7l0.7-2.3h3.9l0.7,2.3h2.9l-3.3-9.7C2212.8,124.3,2212.6,124.1,2211.8,124.1z
	 M2209.2,131l1.5-4.9l1.5,4.9H2209.2z M2196.6,128.4l0.5-0.8c1.1-1.7,0.4-3.5-1.9-3.5h-4.7V135h4.6
	C2199.1,135,2200.4,130.3,2196.6,128.4z M2193.9,133.5h-0.8v-8h1.4c0.7,0,1.2,0.5,1.3,1.2c0,0.3-0.1,0.6-0.3,0.8l-0.9,1.4
	c1.2,0.4,1.9,1.8,1.4,3C2195.7,132.8,2194.9,133.4,2193.9,133.5L2193.9,133.5z M2187.5,128.4l0.5-0.8c1.1-1.7,0.4-3.5-1.9-3.5h-4.7
	V135h4.6C2190,135,2191.2,130.3,2187.5,128.4z M2184.7,133.5h-0.7v-8h1.4c0.7,0,1.2,0.5,1.3,1.2c0,0.3-0.1,0.6-0.3,0.8l-0.9,1.3
	c1.2,0.4,1.9,1.8,1.4,3C2186.6,132.8,2185.7,133.4,2184.7,133.5L2184.7,133.5z M2207.6,124.1l-3.3,10.8h-2.6l-3.6-10.8h1.9
	c0.7,0,0.9,0.2,1.3,1.4l2.1,6.8l2.4-8.2L2207.6,124.1L2207.6,124.1z M2236.1,126.6c-1,0-2,0.2-2.9,0.7h-0.1v0.9h0.6l0,0
	c0.7-0.5,1.5-0.7,2.4-0.7c1.2,0,1.8,0.5,1.8,1.5v1.2c-0.7-0.1-1.3-0.2-2-0.2c-2.2,0-3.4,0.9-3.4,2.5c0,1.4,1.1,2.5,2.4,2.5
	c0.1,0,0.2,0,0.3,0c1,0,1.9-0.3,2.6-0.9c0,0.6,0.1,0.9,0.7,0.9h0.4v-6.1C2239,127.4,2238,126.6,2236.1,126.6L2236.1,126.6z
	 M2237.9,133c-0.6,0.8-1.5,1.2-2.5,1.2c-0.8,0-1.8-0.3-1.8-1.6s1.4-1.6,2.3-1.6c0.6,0,1.3,0.1,1.9,0.2v1.8L2237.9,133L2237.9,133z
	 M2257.7,134.2v0.8h-0.1c-0.4,0.1-0.8,0.1-1.2,0.1c-1.4,0-2.1-0.6-2.1-2v-5.6h-1.1v-0.9h1.1v-2.2h1.1v2.2h2.1v0.9h-2.1v5.5
	c0,0.8,0.3,1.1,1.2,1.1L2257.7,134.2L2257.7,134.2z M2241.8,124.9v10.3h-1.1V124h0.4C2241.7,123.9,2241.8,124.2,2241.8,124.9z
	 M2249.5,126.6c-2.2,0-3.7,1.8-3.7,4.3s1.5,4.2,3.9,4.2c1.1,0,2.1-0.3,3-0.9l0.1-0.1v-0.8h-0.6v0.1c-0.7,0.6-1.5,0.9-2.4,0.8
	c-1.9,0-2.8-1-2.9-3.1h6v-0.2c0-0.1,0-0.2,0-0.3C2253,128,2251.8,126.6,2249.5,126.6z M2246.9,130.2c0.2-1.7,1.1-2.6,2.6-2.6
	s2.3,0.9,2.4,2.6H2246.9z M2244.6,124.9v10.3h-1.1V124h0.4C2244.6,123.9,2244.6,124.2,2244.6,124.9L2244.6,124.9z M2232.6,124.5
	l-2.7,10.6h-1.2l-2.5-9l-2.5,9h-1.2V135l-2.7-10.6v-0.5h1.1l2.3,9.1l2.6-9.1h1v0.1l2.5,9l2.3-9.1h1L2232.6,124.5z"/>
<g>
	<path class="st1" d="M478,52c0,1.1-0.9,2-2,2h-12c-1.1,0-2-0.9-2-2v-4.4c0-1.1,0.9-2,2-2h12c1.1,0,2,0.9,2,2V52z"/>
</g>
<g>
	<path class="st1" d="M481.9,2h-79.7c-4.5,0-8.1,3.5-8.1,8v48c0,4.5,3.7,8,8.1,8h79.7c4.5,0,8.1-3.5,8.1-8V10
		C490,5.5,486.3,2,481.9,2z M486,24v1.9V52v6c0,2.2-1.9,4-4.1,4h-79.7c-2.2,0-4.1-1.8-4.1-4v-6V25.9V24V10c0-2.2,1.9-4,4.1-4h79.7
		c2.2,0,4.1,1.8,4.1,4L486,24L486,24z"/>
</g>
<g>
	<path class="st0" d="M478.8,10.8h-52.7c-1.1,0-1.9,0.9-1.9,1.9v11.6c0,1.1,0.9,1.9,1.9,1.9h52.7c1.1,0,1.9-0.9,1.9-1.9V12.7
		C480.7,11.6,479.8,10.8,478.8,10.8z"/>
	<path class="st1" d="M421.2,10.8h-16.5c-1.1,0-1.9,0.9-1.9,1.9v11.6c0,1.1,0.9,1.9,1.9,1.9h16.5c1.1,0,1.9-0.9,1.9-1.9V12.7
		C423.1,11.6,422.3,10.8,421.2,10.8z"/>
	<g>
		<g>
			<path class="st5" d="M475.8,22.6c0,0.4-0.3,0.7-0.7,0.7c-0.4,0-0.7-0.3-0.7-0.7s0.4-0.7,0.7-0.7
				C475.5,21.8,475.8,22.1,475.8,22.6z M474.5,22.6c0,0.3,0.2,0.6,0.6,0.6c0.3,0,0.5-0.3,0.5-0.6c0-0.3-0.2-0.6-0.6-0.6
				C474.8,22,474.5,22.2,474.5,22.6z M475,23h-0.2v-0.7c0.1,0,0.2,0,0.3,0c0.2,0,0.2,0,0.3,0c0,0,0.1,0.1,0.1,0.2s-0.1,0.2-0.2,0.2
				l0,0c0.1,0,0.1,0.1,0.1,0.2s0,0.2,0,0.2h-0.2c0,0,0-0.1,0-0.2s0-0.1-0.2-0.1l0,0L475,23L475,23z M475,22.5L475,22.5
				c0.2,0,0.2,0,0.2-0.1s0-0.1-0.2-0.1h-0.1v0.2H475z"/>
		</g>
		<g>
			<path class="st1" d="M442.7,16c-2,0-3.7,1.4-3.7,3.6s1.7,3.6,3.7,3.6s3.7-1.4,3.7-3.6C446.4,17.5,444.7,16,442.7,16z M442.7,21.7
				L442.7,21.7C442.6,21.7,442.6,21.7,442.7,21.7c-1.3,0-2.1-0.9-2.1-2.1s0.9-2.1,2.1-2.1l0,0l0,0c1.2,0,2.1,1,2.1,2.1
				C444.8,20.8,443.9,21.7,442.7,21.7z"/>
			<path class="st1" d="M437.4,20.5c-0.6,0.7-1.5,1.2-2.6,1.2c-1.8,0-3.3-1.5-3.3-3.3s1.5-3.3,3.3-3.3c1,0,1.9,0.5,2.5,1.2l1.2-1
				c-0.9-1-2.2-1.7-3.7-1.7c-2.7,0-4.9,2.2-4.9,4.9s2.2,4.9,4.9,4.9c1.5,0,2.9-0.7,3.8-1.7L437.4,20.5z"/>
			<g>
				<path class="st1" d="M458.6,16c-2,0-3.7,1.5-3.7,3.6s0,6.5,0,6.5h1.6v-3.5c0.6,0.4,1.3,0.6,2.1,0.6c2,0,3.7-1.5,3.7-3.6
					C462.4,17.5,460.7,16,458.6,16z M458.7,21.7L458.7,21.7C458.6,21.7,458.6,21.7,458.7,21.7c-1.3,0-2.1-1-2.1-2.1
					c0-1.2,0.9-2.1,2.1-2.1l0,0l0,0c1.2,0,2.1,1,2.1,2.1C460.8,20.8,459.9,21.7,458.7,21.7z"/>
				<path class="st1" d="M450.6,16c-2,0-3.7,1.5-3.7,3.6s0,6.5,0,6.5h1.6v-3.5c0.6,0.4,1.3,0.6,2.1,0.6c2,0,3.7-1.5,3.7-3.6
					C454.4,17.5,452.7,16,450.6,16z M450.7,21.7L450.7,21.7C450.6,21.7,450.6,21.7,450.7,21.7c-1.3,0-2.1-1-2.1-2.1
					c0-1.2,0.9-2.1,2.1-2.1l0,0l0,0c1.2,0,2.1,1,2.1,2.1C452.8,20.8,451.9,21.7,450.7,21.7z"/>
				<path class="st1" d="M466.2,16c-1.9,0-3.4,1.5-3.4,3.6s1.6,3.6,3.4,3.6c1.1,0,2.3-0.4,3-1.2l-0.9-0.9c-0.4,0.5-1.1,0.8-1.8,0.8
					c-1.2,0-2.1-0.7-2.1-1.8h5.3c0-0.2,0-0.3,0-0.4C469.7,17.5,468.3,16,466.2,16z M464.4,18.9c0-0.6,0.8-1.5,1.9-1.5
					c0.7,0,1.7,0.5,1.7,1.5H464.4z"/>
				<path class="st1" d="M471.8,19.6v-6h-1.6v6l0,0c0,2.1,1.6,3.5,3.7,3.6v-1.5C472.6,21.7,471.8,20.8,471.8,19.6z"/>
			</g>
		</g>
	</g>
	<path class="st6" d="M421.1,18.4h-10.2c0-0.2,0.1-0.4,0.1-0.5c0-1-0.8-1.8-1.8-1.8c-0.9,0-1.6,0.6-1.8,1.4c-0.2,0-0.4-0.1-0.5-0.1
		c-1,0-1.8,0.8-1.8,1.8s0.8,1.8,1.8,1.8c0.2,0,0.4,0,0.5-0.1c0.2,0.8,0.9,1.4,1.8,1.4c1,0,1.8-0.8,1.8-1.8c0-0.2,0-0.4-0.1-0.5h6.9
		v2.1h0.8V21h0.8v1.1h0.8V20h0.8L421.1,18.4L421.1,18.4z M409.2,17.1c0.4,0,0.8,0.4,0.8,0.8s-0.4,0.8-0.8,0.8s-0.8-0.4-0.8-0.8
		S408.7,17.1,409.2,17.1z M406.1,19.2c0-0.4,0.4-0.8,0.8-0.8s0.8,0.4,0.8,0.8s-0.4,0.8-0.8,0.8S406.1,19.6,406.1,19.2z M409.2,21.3
		c-0.4,0-0.8-0.4-0.8-0.8s0.4-0.8,0.8-0.8s0.8,0.4,0.8,0.8S409.6,21.3,409.2,21.3z"/>
</g>
<g>
	<path class="st7" d="M90.5,13.8H61.4v4.3h28c1.8,0,3.2,1.4,3.2,3.2v34.6c0,1.8-1.4,3.2-3.2,3.2l0,0l0,0c-1.1,0.1-1.9,1-1.9,2.1
		s0.9,2,1.9,2.1l0,0h0.2h0.8h0.1c3.6,0,6.4-2.9,6.4-6.4V20.2C96.9,16.7,94.1,13.8,90.5,13.8z"/>
	<path class="st7" d="M55.7,58.5L55.7,58.5H44l0,0c-1.2,0-2.1,1-2.1,2.1s1,2.1,2.1,2.1l0,0l0,0h11.6l0,0l0,0c1.2,0,2.1-1,2.1-2.1
		C57.8,59.5,56.9,58.5,55.7,58.5z"/>
	<path class="st7" d="M56.8,3H8.4C4.8,3,1.9,5.9,1.9,9.4v46.9c0,3.6,2.9,6.4,6.4,6.4h1.3l0,0c1.1-0.1,2-1,2-2.1s-0.9-2.1-2-2.1l0,0
		H9.5l0,0l0,0c-1.8,0-3.2-1.4-3.2-3.2V10.5c0-1.8,1.4-3.2,3.2-3.2h46.3c1.8,0,3.2,1.4,3.2,3.2v37.1c0,1.2,1,2.1,2.1,2.1
		c1.2,0,2.1-1,2.1-2.1V9.4C63.2,5.9,60.4,3,56.8,3z"/>
	<path class="st7" d="M84.1,36.7c-1.8,0-3.2-1.4-3.2-3.2V15.7h-4.3v18.9c0,3.6,2.9,6.4,6.4,6.4h12.1v-4.3H84.1L84.1,36.7z"/>
	<path class="st7" d="M72.9,47.8c-7.1,0-12.9,5.8-12.9,12.9s5.8,12.9,12.9,12.9s12.9-5.8,12.9-12.9C85.8,53.5,80,47.8,72.9,47.8z
		 M72.9,69.2c-4.7,0-8.6-3.8-8.6-8.6s3.8-8.6,8.6-8.6s8.6,3.8,8.6,8.6S77.7,69.2,72.9,69.2z"/>
	<path class="st7" d="M26.8,47.8c-7.1,0-12.9,5.8-12.9,12.9s5.8,12.9,12.9,12.9s12.9-5.8,12.9-12.9C39.7,53.5,33.9,47.8,26.8,47.8z
		 M26.8,69.2c-4.7,0-8.6-3.8-8.6-8.6S22,52,26.8,52s8.6,3.8,8.6,8.6S31.6,69.2,26.8,69.2z"/>
</g>
<g>
	<path class="st7" d="M148.5,2c-17.7,0-32,14.3-32,32s14.3,32,32,32s32-14.3,32-32S166.2,2,148.5,2z M148.5,61.6
		c-15.2,0-27.6-12.4-27.6-27.6s12.4-27.6,27.6-27.6s27.6,12.4,27.6,27.6S163.7,61.6,148.5,61.6z"/>
	<g>
		<path class="st7" d="M191.2,74.7c0,0-0.1,0-0.1,0.1l1.1,4.3l-13.4-3.6c-3.3-0.5-6.5,1.5-7.4,4.8l-3.5,12.8l-3.7-2.5l0,0
			c-2.1,1.2-1.1,2.9,0.1,5c1.2,2.1,3.9,2.8,5.9,1.6c1.3-0.7,2-2,2.2-3.4l3-11.3c0.5-1.8,2.3-2.8,4.1-2.3l11.8,3.1
			c1.1,0.3,2.2,0.2,3.3-0.4c2.1-1.2,2.8-3.9,1.6-5.9C194.9,74.8,193.3,73.5,191.2,74.7z"/>
		<g>
			<rect x="155" y="61.6" transform="matrix(0.866 -0.5 0.5 0.866 -18.466 89.183)" class="st7" width="4.4" height="34.9"/>
			<polygon class="st7" points="173.8,47.1 192.3,79 196.1,76.8 177.6,44.9 			"/>
		</g>
	</g>
	<g>
		<path class="st7" d="M105.5,74.7C105.5,74.7,105.6,74.7,105.5,74.7l-1,4.4l13.4-3.6c3.3-0.5,6.5,1.5,7.4,4.8l3.5,12.8l3.7-2.5l0,0
			c2.1,1.2,1.1,2.9-0.1,5c-1.2,2.1-3.9,2.8-5.9,1.6c-1.3-0.7-2-2-2.2-3.4l-3-11.3c-0.5-1.8-2.3-2.8-4.1-2.3l-11.8,3.1
			c-1.1,0.3-2.2,0.2-3.3-0.4c-2.1-1.2-2.8-3.9-1.6-5.9C101.8,74.8,103.4,73.5,105.5,74.7z"/>
		<g>
			<rect x="122.1" y="76.9" transform="matrix(0.5 -0.866 0.866 0.5 1.2999 160.3828)" class="st7" width="34.9" height="4.4"/>
			<polygon class="st7" points="123.3,46.5 104.5,79 100.6,76.8 119.4,44.3 			"/>
		</g>
	</g>
</g>
<g>
	<path class="st7" d="M233,23.1l24-11.5c1.3-1.3,3.5-1.3,4.9,0l16,11.5h7.1L264.3,7.6c-2.7-2.7-7.1-2.7-9.8,0l-29.3,15.6L233,23.1
		L233,23.1z"/>
	<path class="st7" d="M286.6,20.9h-63.8c-1.5,0-2.9,0.5-4.1,1.3l-2.7-9.8c-1.1-4-5.3-6.9-9.7-6.9h-6.1h-0.8h-0.1
		c-1.3,0-2.3,1-2.3,2.3s1,2.3,2.3,2.3h0.1h0.8h6.1c3.2,0,4.5,2.2,5.1,3.5l14.7,53.6c1.1,3.7,3.1,6.9,6.9,6.9h42.2
		c3.8,0,6.6-2.9,7.7-6.9L293.2,29C294.1,24.7,290.4,20.9,286.6,20.9z M288.9,29l-10.6,37.1c-0.5,2.1-1.5,3.5-3.5,3.5H234
		c-1.9,0-2.9-1.6-3.5-3.5l-10.2-37.9c-0.1-2.2,1.8-2.7,3.6-2.7h61.4C287.4,25.5,289.5,26.6,288.9,29z"/>
	<path class="st7" d="M238.1,77.1c-5.7,0-10.4,4.6-10.4,10.4c0,5.7,4.6,10.4,10.4,10.4s10.4-4.6,10.4-10.4
		C248.4,81.7,243.8,77.1,238.1,77.1z M238.1,93.2c-3.2,0-5.8-2.6-5.8-5.8s2.6-5.8,5.8-5.8s5.8,2.6,5.8,5.8
		C243.8,90.6,241.2,93.2,238.1,93.2z"/>
	<path class="st7" d="M271.3,77.1c-5.7,0-10.4,4.6-10.4,10.4c0,5.7,4.6,10.4,10.4,10.4c5.7,0,10.4-4.6,10.4-10.4
		C281.7,81.7,277,77.1,271.3,77.1z M271.3,93.2c-3.2,0-5.8-2.6-5.8-5.8s2.6-5.8,5.8-5.8c3.2,0,5.8,2.6,5.8,5.8
		C277.1,90.6,274.5,93.2,271.3,93.2z"/>
</g>
<g>
	<path class="st7" d="M364,35h-56.4c-3.4,0-6.1,2.8-6.1,6.1V91c0,3.4,2.8,6.1,6.1,6.1H364c3.4,0,6.1-2.8,6.1-6.1V41.2
		C370.2,37.8,367.4,35,364,35z M366.1,90.1c0,1.7-1.4,3.1-3.1,3.1h-54.4c-1.7,0-3.1-1.4-3.1-3.1V42.2c0-1.7,1.4-3.1,3.1-3.1H363
		c1.7,0,3.1,1.4,3.1,3.1V90.1z"/>
	<path class="st7" d="M335.8,52.2c-5.1,0-9.2,4.1-9.2,9.2s4.1,9.2,9.2,9.2s9.2-4.1,9.2-9.2S340.9,52.2,335.8,52.2z M335.8,66.5
		c-2.8,0-5.1-2.3-5.1-5.1c0-2.8,2.3-5.1,5.1-5.1c2.8,0,5.1,2.3,5.1,5.1C340.9,64.2,338.7,66.5,335.8,66.5z"/>
	<path class="st7" d="M333.8,67.1v11.3c0,1.1,0.9,2,2,2s2-0.9,2-2V67.1H333.8z"/>
	<path class="st7" d="M322.4,36V19.2c0-7.4,6-13.4,13.4-13.4s13.4,6,13.4,13.4v8.1l0,0V36h4.1V19.1c0-9.7-7.9-17.5-17.5-17.5
		c-9.7,0-17.5,7.9-17.5,17.5V36H322.4z"/>
</g>
<g>
	<path class="st7" d="M947.3,2.2h-55.4c-2.4,0-4.3,1.9-4.3,4.3v35.4c0,2.4,1.9,4.3,4.3,4.3h55.4c2.4,0,4.3-1.9,4.3-4.3V6.4
		C951.6,4.1,949.7,2.2,947.3,2.2z M948.8,41.1c0,1.2-1,2.1-2.1,2.1h-54c-1.2,0-2.1-1-2.1-2.1v-34c0-1.2,1-2.1,2.1-2.1h54
		c1.2,0,2.1,1,2.1,2.1V41.1z"/>
	<rect x="889.1" y="11.6" class="st7" width="60.4" height="7.1"/>
	<path class="st7" d="M941.5,34.2c0,1.2-1,2.1-2.1,2.1H933c-1.2,0-2.1-1-2.1-2.1v-6.4c0-1.2,1-2.1,2.1-2.1h6.4c1.2,0,2.1,1,2.1,2.1
		V34.2z"/>
</g>
<g>
	<circle class="st8" cx="1219.1" cy="20.1" r="16"/>
	<line class="st9" x1="1230" y1="32.5" x2="1243.6" y2="46"/>
	<path class="st10" d="M1219.1,9.5c5.9,0,10.6,4.8,10.6,10.6"/>
</g>
<g id="rounded">
	<path class="st3" d="M1268.5,37.1c-9.7,0-17.5-7.8-17.5-17.5s7.8-17.5,17.5-17.5s17.5,7.8,17.5,17.5l0,0
		C1286,29.3,1278.1,37.1,1268.5,37.1z M1268.5,3.1c-9.1,0-16.5,7.4-16.5,16.5s7.4,16.5,16.5,16.5s16.5-7.4,16.5-16.5l0,0
		C1285,10.5,1277.6,3.1,1268.5,3.1L1268.5,3.1z"/>
	<path class="st3" d="M1264.4,16.7h1.8V15c-0.1-0.9,0.1-1.8,0.6-2.6c0.6-0.9,1.7-1.4,2.8-1.3c1.1,0,2.1,0.1,3.2,0.3l-0.4,2.6
		c-0.5-0.1-0.9-0.2-1.4-0.2c-0.7,0-1.3,0.2-1.3,0.9v2h2.8l-0.2,2.5h-2.6V28h-3.3v-8.8h-1.8v-2.5H1264.4z"/>
</g>
<g id="rounded_1_">
	<path class="st3" d="M1306.9,37.1c-9.7,0-17.5-7.8-17.5-17.5s7.8-17.5,17.5-17.5s17.5,7.8,17.5,17.5l0,0
		C1324.4,29.3,1316.6,37.1,1306.9,37.1z M1306.9,3.1c-9.1,0-16.5,7.4-16.5,16.5s7.4,16.5,16.5,16.5s16.5-7.4,16.5-16.5l0,0
		C1323.4,10.5,1316,3.1,1306.9,3.1L1306.9,3.1z"/>
	<path class="st3" d="M1310.9,12.9v3.8c-0.1,0.1-0.2,0.2-0.3,0.3c-0.1,0.1-0.2,0.1-0.3,0.1c-0.1,0-0.1,0-0.2-0.1s-0.1-0.2-0.1-0.3
		v-3.8h-1V17c0,0.2,0,0.5,0.2,0.7c0.1,0.2,0.3,0.2,0.5,0.2s0.4-0.1,0.6-0.1c0.2-0.1,0.4-0.3,0.6-0.5v0.5h1V13L1310.9,12.9
		L1310.9,12.9z M1307.8,13.2c-0.3-0.2-0.6-0.4-1-0.4s-0.8,0.1-1.1,0.4c-0.3,0.2-0.4,0.6-0.4,0.9v2.5c0,0.4,0.1,0.7,0.4,1
		c0.6,0.5,1.5,0.5,2.1,0c0.3-0.3,0.4-0.6,0.4-1v-2.5C1308.3,13.8,1308.1,13.4,1307.8,13.2L1307.8,13.2z M1307.2,16.7
		c0,0.1,0,0.2-0.1,0.3c-0.1,0.1-0.2,0.1-0.3,0.1c-0.1,0-0.2,0-0.3-0.1c-0.1-0.1-0.1-0.2-0.1-0.3V14c0-0.1,0-0.2,0.1-0.3
		s0.2-0.1,0.3-0.1c0.1,0,0.2,0,0.3,0.1c0.1,0.1,0.1,0.2,0.1,0.3V16.7z M1304,11.2l-0.7,2.7h-0.1l-0.7-2.7h-1.1l1.4,4.1v2.6h1.1v-2.8
		l1.3-3.9C1305.2,11.2,1304,11.2,1304,11.2z M1312,23c0.1,0.1,0.1,0.3,0.1,0.4v0.5h-0.8v-0.5c0-0.1,0-0.3,0.1-0.4s0.2-0.1,0.3-0.1
		S1311.9,22.9,1312,23z M1308.8,23c-0.1-0.1-0.2-0.1-0.3-0.1c-0.1,0-0.1,0-0.2,0s-0.1,0.1-0.2,0.1v2.8c0.1,0.1,0.1,0.1,0.2,0.2
		c0.1,0,0.1,0,0.2,0s0.2,0,0.2-0.1c0.1-0.1,0.1-0.2,0-0.3v-2.3C1308.9,23.2,1308.9,23.1,1308.8,23L1308.8,23z M1308.8,23
		c-0.1-0.1-0.2-0.1-0.3-0.1c-0.1,0-0.1,0-0.2,0s-0.1,0.1-0.2,0.1v2.8c0.1,0.1,0.1,0.1,0.2,0.2c0.1,0,0.1,0,0.2,0s0.2,0,0.2-0.1
		c0.1-0.1,0.1-0.2,0-0.3v-2.3C1308.9,23.2,1308.9,23.1,1308.8,23L1308.8,23z M1313.9,19.5h-14c-1.6,0-2.8,1.3-2.8,2.8v2.9
		c0,1.5,1.3,2.8,2.8,2.8h14c1.6,0,2.8-1.3,2.8-2.8v-2.9C1316.7,20.8,1315.5,19.5,1313.9,19.5z M1303.6,21.5h-1v5.2h-1v-5.2h-1v-0.9
		h3.1L1303.6,21.5z M1306.6,26.7h-0.9v-0.5c-0.1,0.2-0.3,0.3-0.5,0.4s-0.3,0.1-0.5,0.1s-0.3,0-0.5-0.2c-0.1-0.2-0.2-0.4-0.1-0.6
		v-3.8h0.8v3.4c0,0.1,0,0.2,0.1,0.2c0,0.1,0.1,0.1,0.2,0.1s0.2,0,0.2-0.1c0.1-0.1,0.2-0.1,0.3-0.2v-3.4h0.9V26.7z M1309.9,25.8
		c0,0.3-0.1,0.5-0.2,0.7c-0.2,0.2-0.4,0.3-0.6,0.3s-0.3,0-0.5-0.1c-0.1-0.1-0.3-0.2-0.4-0.3v0.4h-0.9v-6.1h0.9v2
		c0.1-0.1,0.2-0.2,0.4-0.3c0.1-0.1,0.3-0.1,0.4-0.1c0.3,0,0.5,0.1,0.6,0.3c0.2,0.2,0.2,0.5,0.2,0.8L1309.9,25.8z M1313,24.6h-1.7
		v0.8c0,0.2,0,0.3,0.1,0.5c0.1,0.1,0.2,0.2,0.3,0.1c0.1,0,0.2,0,0.3-0.1c0.1-0.2,0.1-0.3,0.1-0.5v-0.2h0.9v0.2c0,0.4-0.1,0.7-0.3,1
		c-0.3,0.3-0.6,0.4-1,0.4s-0.7-0.1-1-0.4c-0.2-0.3-0.4-0.6-0.3-1v-2c0-0.4,0.1-0.7,0.4-1s0.6-0.4,1-0.4c0.3,0,0.7,0.1,0.9,0.4
		c0.2,0.3,0.4,0.6,0.3,1L1313,24.6z M1308.6,22.9c-0.1,0-0.1,0-0.2,0s-0.1,0.1-0.2,0.1v2.8c0.1,0.1,0.1,0.1,0.2,0.2
		c0.1,0,0.1,0,0.2,0s0.2,0,0.2-0.1c0.1-0.1,0.1-0.2,0-0.4v-2.3C1308.8,23.1,1308.8,23,1308.6,22.9
		C1308.7,22.9,1308.7,22.9,1308.6,22.9L1308.6,22.9L1308.6,22.9z M1308.9,23c-0.1-0.1-0.2-0.1-0.3-0.1c-0.1,0-0.1,0-0.2,0
		s-0.1,0.1-0.2,0.1v2.8c0.1,0.1,0.1,0.1,0.2,0.2c0.1,0,0.1,0,0.2,0s0.2,0,0.2-0.1c0.1-0.1,0.1-0.2,0-0.4v-2.3
		C1308.9,23.2,1308.9,23.1,1308.9,23L1308.9,23L1308.9,23z M1308.9,23c-0.1-0.1-0.2-0.1-0.3-0.1c-0.1,0-0.1,0-0.2,0
		s-0.1,0.1-0.2,0.1v2.8c0.1,0.1,0.1,0.1,0.2,0.2c0.1,0,0.1,0,0.2,0s0.2,0,0.2-0.1c0.1-0.1,0.1-0.2,0-0.4v-2.3
		C1308.9,23.2,1308.9,23.1,1308.9,23L1308.9,23L1308.9,23z"/>
</g>
<g id="rounded_2_">
	<path class="st3" d="M1345.3,37.1c-9.7,0-17.5-7.8-17.5-17.5s7.8-17.5,17.5-17.5s17.5,7.8,17.5,17.5l0,0
		C1362.8,29.3,1355,37.1,1345.3,37.1z M1345.3,3.1c-9.1,0-16.5,7.4-16.5,16.5s7.4,16.5,16.5,16.5s16.5-7.4,16.5-16.5l0,0
		C1361.8,10.5,1354.4,3.1,1345.3,3.1L1345.3,3.1z"/>
	<path class="st3" d="M1350.6,11.1h-10.4c-1.8,0-3.3,1.5-3.3,3.3l0,0v10.4c0,1.8,1.5,3.3,3.3,3.3h10.4c1.8,0,3.3-1.5,3.3-3.3l0,0
		V14.4C1353.8,12.6,1352.4,11.1,1350.6,11.1z M1351.5,13.1h0.4V16h-2.9v-2.9H1351.5z M1342.9,17.9c1-1.3,2.8-1.6,4.2-0.7
		c1.3,1,1.6,2.8,0.7,4.2s-2.8,1.6-4.2,0.7c-0.8-0.6-1.3-1.5-1.2-2.5C1342.3,19,1342.5,18.4,1342.9,17.9L1342.9,17.9L1342.9,17.9z
		 M1352.2,24.9c0,0.9-0.7,1.6-1.6,1.6h-10.4c-0.9,0-1.6-0.7-1.6-1.6v-7h2.5c-1,2.4,0.2,5.1,2.6,6.1s5.1-0.2,6.1-2.6
		c0.5-1.1,0.5-2.4,0-3.5h2.5L1352.2,24.9z"/>
</g>
<g>
	<circle class="st11" cx="1542.6" cy="32.1" r="30"/>
	<g>
		<path class="st12" d="M1562.6,34l-2.5-2.5l-3-8.6c-0.3-0.9-1.3-1.6-2.3-1.6h-5.8v-0.9c0-1.9-1.5-3.4-3.4-3.4h-20.7
			c-1.9,0-3.4,1.5-3.4,3.4V42c0,1.9,1.5,3.4,3.4,3.4h1.1c0.5,2.2,2.4,3.9,4.8,3.9s4.3-1.7,4.8-3.9h14.8c0.5,2.2,2.4,3.9,4.8,3.9
			s4.3-1.7,4.8-3.9h2.5c0.6,0,1-0.4,1-1v-7.9C1563.6,35.6,1563.1,34.6,1562.6,34z M1561.6,36.4v6.9h-1.5c-0.5-2.2-2.4-3.9-4.8-3.9
			s-4.3,1.7-4.8,3.9h-1.5V33.1h9.8l2.4,2.4C1561.4,35.6,1561.6,36.1,1561.6,36.4z M1555.1,23.6l2.6,7.5h-1.9l0.4-0.4
			c0.4-0.4,0.4-1,0-1.4s-1-0.4-1.4,0l-1.8,1.8h-4.1v-5.8v-1.9h5.8C1554.9,23.3,1555.1,23.4,1555.1,23.6z M1524.9,19h20.7
			c0.8,0,1.4,0.6,1.4,1.4v1.9v2.9V32v2.4h-23.4v-14C1523.6,19.6,1524.2,19,1524.9,19z M1523.6,42v-5.5h23.4v6.9h-11.3
			c-0.5-2.2-2.4-3.9-4.8-3.9s-4.3,1.7-4.8,3.9h-1.1C1524.2,43.4,1523.6,42.7,1523.6,42z M1530.8,47.3c-1.6,0-2.9-1.3-2.9-2.9
			c0-1.6,1.3-2.9,2.9-2.9s2.9,1.3,2.9,2.9C1533.8,46,1532.5,47.3,1530.8,47.3z M1555.3,47.3c-1.6,0-2.9-1.3-2.9-2.9
			c0-1.6,1.3-2.9,2.9-2.9s2.9,1.3,2.9,2.9C1558.2,46,1556.9,47.3,1555.3,47.3z"/>
		<path class="st12" d="M1551.4,33.7c-0.8,0-1.4,0.6-1.4,1.4c0,0.8,0.6,1.4,1.4,1.4s1.4-0.6,1.4-1.4S1552.2,33.7,1551.4,33.7z"/>
		<path class="st12" d="M1555.3,43c-0.8,0-1.4,0.6-1.4,1.4c0,0.8,0.6,1.4,1.4,1.4s1.4-0.6,1.4-1.4C1556.7,43.6,1556.1,43,1555.3,43z
			"/>
		<path class="st12" d="M1530.8,43c-0.8,0-1.4,0.6-1.4,1.4c0,0.8,0.6,1.4,1.4,1.4s1.4-0.6,1.4-1.4C1532.2,43.6,1531.6,43,1530.8,43z
			"/>
	</g>
</g>
<g>
	<circle class="st11" cx="1402.6" cy="32.1" r="30"/>
	<g>
		<path class="st12" d="M1418.6,17.9h-32c-2.2,0-4,1.8-4,4v2v8.6v9.9c0,2.2,1.8,4,4,4h32c2.2,0,4-1.8,4-4v-9.9v-8.6v-2
			C1422.6,19.7,1420.8,17.9,1418.6,17.9z M1384.6,25.9h36v4.6h-36V25.9z M1420.6,42.4c0,1.1-0.9,2-2,2h-32c-1.1,0-2-0.9-2-2v-9.9h36
			V42.4z M1384.6,23.9v-2c0-1.1,0.9-2,2-2h32c1.1,0,2,0.9,2,2v2H1384.6z"/>
		<path class="st12" d="M1396.6,39.4c0.4,0,0.8-0.3,0.8-0.8s-0.3-0.8-0.8-0.8c-0.4,0-0.8,0.3-0.8,0.8S1396.2,39.4,1396.6,39.4z"/>
		<path class="st12" d="M1387,39.7h6.4c0.6,0,1-0.4,1-1s-0.4-1-1-1h-6.4c-0.6,0-1,0.4-1,1S1386.5,39.7,1387,39.7z"/>
	</g>
</g>
<g>
	<circle class="st11" cx="1612.6" cy="32.1" r="30"/>
	<g>
		<path class="st12" d="M1624.6,24.7h-3.6v-4.1c0-4.6-3.8-8.4-8.4-8.4s-8.4,3.8-8.4,8.4v4.1h-3.6c-2.2,0-4,1.8-4,4v17.5
			c0,2.2,1.8,4,4,4h24c2.2,0,4-1.8,4-4V28.7C1628.6,26.4,1626.8,24.7,1624.6,24.7z M1606.2,20.6c0-3.5,2.9-6.4,6.4-6.4
			s6.4,2.9,6.4,6.4v4.1h-12.8V20.6z M1600.6,26.7h24c1.1,0,2,0.9,2,2v15.4h-28V28.7C1598.6,27.6,1599.5,26.7,1600.6,26.7z
			 M1624.6,48.1h-24c-1.1,0-2-0.9-2-2l0,0h28l0,0C1626.6,47.2,1625.7,48.1,1624.6,48.1z"/>
		<path class="st12" d="M1612.6,40.7c1.9,0,3.5-1.6,3.5-3.5c0-1.6-1.1-2.9-2.5-3.3v-3.3c0-0.6-0.4-1-1-1s-1,0.4-1,1v3.3
			c-1.4,0.4-2.5,1.8-2.5,3.3C1609.1,39.1,1610.6,40.7,1612.6,40.7z M1612.5,35.7C1612.5,35.7,1612.6,35.7,1612.5,35.7
			C1612.6,35.7,1612.6,35.7,1612.5,35.7c0.9,0,1.5,0.7,1.5,1.5s-0.7,1.5-1.5,1.5s-1.5-0.7-1.5-1.5
			C1611.1,36.4,1611.7,35.7,1612.5,35.7z"/>
	</g>
</g>
<g>
	<circle class="st11" cx="1682.6" cy="32.1" r="30"/>
	<g>
		<path class="st12" d="M1698.4,46.8l-4.4-7.6c2.6-2.8,4.2-6.5,4.2-10.6c0-8.6-7-15.7-15.7-15.7c-8.6,0-15.7,7-15.7,15.7
			c0,4.1,1.6,7.8,4.2,10.6l-4.4,7.6c-0.2,0.3-0.2,0.7,0,1s0.5,0.5,0.9,0.5h5.3l2.7,4.6c0.2,0.3,0.5,0.5,0.9,0.5l0,0
			c0.4,0,0.7-0.2,0.9-0.5l5-8.7c0.1,0,0.1,0,0.2,0s0.1,0,0.2,0l5,8.7c0.2,0.3,0.5,0.5,0.9,0.5l0,0c0.4,0,0.7-0.2,0.9-0.5l2.7-4.6
			h5.3c0.4,0,0.7-0.2,0.9-0.5S1698.6,47.1,1698.4,46.8z M1682.6,14.9c7.5,0,13.7,6.1,13.7,13.7c0,6.5-4.6,11.9-10.7,13.3
			c-0.3,0.1-0.6,0.1-0.9,0.2c-0.1,0-0.1,0-0.2,0c-0.4,0.1-0.8,0.1-1.2,0.1l0,0c-0.2,0-0.5,0-0.7,0s-0.5,0-0.7,0l0,0
			c-0.4,0-0.8-0.1-1.2-0.1c-0.1,0-0.1,0-0.2,0c-0.3,0-0.6-0.1-0.9-0.2c-6.1-1.4-10.7-6.8-10.7-13.3C1668.9,21,1675,14.9,1682.6,14.9
			z M1680.1,44l-3.7,6.4l-2.1-3.6c-0.2-0.3-0.5-0.5-0.9-0.5h-4.2l3.2-5.5c2,1.5,4.3,2.6,6.7,3.1c0.2,0,0.4,0.1,0.7,0.1
			C1680,44,1680,44,1680.1,44z M1691.6,46.3c-0.4,0-0.7,0.2-0.9,0.5l-2.1,3.6L1685,44c0.1,0,0.2,0,0.3,0c0.2,0,0.4-0.1,0.7-0.1
			c2.4-0.5,4.8-1.6,6.7-3.1l3.2,5.5L1691.6,46.3z"/>
		<path class="st12" d="M1677.8,30.8l-0.8,4.5c-0.1,0.4,0.1,0.8,0.4,1s0.7,0.3,1.1,0.1l4.1-2.1l4.1,2.1c0.1,0.1,0.3,0.1,0.5,0.1
			s0.4-0.1,0.6-0.2c0.3-0.2,0.5-0.6,0.4-1l-0.8-4.5l3.3-3.2c0.3-0.3,0.4-0.7,0.3-1c-0.1-0.4-0.4-0.6-0.8-0.7l-4.5-0.7l-2-4.1
			c-0.2-0.3-0.5-0.6-0.9-0.6s-0.7,0.2-0.9,0.6l-2,4.1l-4.5,0.7c-0.4,0.1-0.7,0.3-0.8,0.7c-0.1,0.4,0,0.8,0.3,1L1677.8,30.8z
			 M1680.4,27.2c0.3,0,0.6-0.3,0.8-0.5l1.4-2.8l1.4,2.8c0.1,0.3,0.4,0.5,0.8,0.5l3.1,0.4l-2.2,2.2c-0.2,0.2-0.3,0.6-0.3,0.9l0.5,3
			l-2.7-1.4c-0.3-0.2-0.6-0.2-0.9,0l-2.7,1.4l0.5-3c0.1-0.3-0.1-0.7-0.3-0.9l-2.2-2.2L1680.4,27.2z"/>
	</g>
</g>
<g>
	<circle class="st11" cx="1472.6" cy="32.1" r="30"/>
	<path class="st12" d="M1490.7,33.7c1.1-1.8,1.2-4.1,0.3-6l-4.4-9.8c-0.7-1.6-2.2-2.5-3.9-2.5h-20.2c-1.7,0-3.2,1-3.9,2.5l-4.4,9.8
		c-0.9,1.9-0.7,4.2,0.3,6c1,1.7,2.6,2.8,4.6,3l0,0v11.2h-2.8c-0.6,0-1,0.4-1,1s0.4,1,1,1h32.7c0.6,0,1-0.4,1-1s-0.4-1-1-1h-2.8V36.7
		v-0.1C1488,36.5,1489.7,35.4,1490.7,33.7z M1474.5,48h-3.8v-6.8h3.8V48z M1484.1,48h-7.6v-7.8c0-0.3-0.1-0.5-0.3-0.7
		s-0.4-0.3-0.7-0.3h-5.8c-0.6,0-1,0.4-1,1V48h-7.6V36.8v-0.1c1.1-0.2,2.2-0.7,3.1-1.5c1.2,1,2.8,1.6,4.3,1.6s3-0.5,4.2-1.5
		c1.2,1,2.7,1.5,4.2,1.5s3.1-0.5,4.3-1.6c0.9,0.7,1.9,1.2,3,1.4c0,0.1,0,0.1,0,0.2L1484.1,48L1484.1,48z M1488.9,32.7L1488.9,32.7
		c-0.7,1.2-1.9,1.9-3.2,2h-0.4c-1.1,0-2.1-0.4-3-1.1c-0.4-0.3-0.8-0.5-1.3-0.5s-0.9,0.2-1.3,0.5c-0.8,0.7-1.9,1.1-3,1.1
		s-2.1-0.4-2.9-1.1c-0.4-0.3-0.8-0.5-1.3-0.5s-0.9,0.2-1.3,0.5c-0.8,0.7-1.8,1.1-2.9,1.1s-2.2-0.4-3-1.1c-0.4-0.3-0.8-0.5-1.3-0.5
		s-0.9,0.2-1.3,0.5c-0.8,0.7-1.9,1.1-3,1.1h-0.4c-1.3-0.1-2.6-0.9-3.3-2.1c-0.7-1.3-0.8-2.8-0.2-4.1l4.4-9.8
		c0.4-0.8,1.2-1.4,2.1-1.4h20.2c0.9,0,1.7,0.5,2.1,1.4l4.4,9.8C1489.8,29.9,1489.7,31.4,1488.9,32.7z"/>
</g>
<g>
	<path class="st3" d="M1736.7,33.5c-2.1,0-3.9-1.7-3.9-3.8s1.7-3.8,3.9-3.8s3.9,1.7,3.9,3.8S1738.9,33.5,1736.7,33.5z M1736.7,27.2
		c-1.4,0-2.5,1.1-2.5,2.4s1.1,2.4,2.5,2.4s2.5-1.1,2.5-2.4S1738.1,27.2,1736.7,27.2z"/>
	<path class="st3" d="M1751,33.5c-2.1,0-3.9-1.7-3.9-3.8s1.7-3.8,3.9-3.8s3.9,1.7,3.9,3.8S1753.1,33.5,1751,33.5z M1751,27.2
		c-1.4,0-2.5,1.1-2.5,2.4s1.1,2.4,2.5,2.4s2.5-1.1,2.5-2.4S1752.3,27.2,1751,27.2z"/>
	<path class="st3" d="M1752.6,22.6h-17.7c-0.7,0-1.4-0.5-1.6-1.1l-6.8-19.2c-0.2-0.5-0.7-0.9-1.2-0.9h-2.8V0h2.8
		c1.1,0,2.2,0.7,2.5,1.8l1,3h27.8c0.2,0,0.3,0,0.5,0.1c0.9,0.3,1.4,1.2,1.2,2.1l-4.1,14.5C1754,22.1,1753.4,22.6,1752.6,22.6z
		 M1729.4,6.2l5.2,14.9c0,0.1,0.2,0.2,0.3,0.2h17.7c0.1,0,0.3-0.1,0.3-0.2l4.1-14.5c0-0.2,0-0.3-0.2-0.4L1729.4,6.2z"/>
</g>
<path class="st13" d="M1780.1,27.4c-1.8,0-3.3-1.5-3.3-3.2c0-1.8,1.5-3.2,3.3-3.2s3.3,1.5,3.3,3.2
	C1783.4,26,1781.9,27.4,1780.1,27.4z M1780.1,22.3c-1,0-1.9,0.8-1.9,1.8s0.9,1.8,1.9,1.8s1.9-0.8,1.9-1.8
	C1782,23.2,1781.2,22.3,1780.1,22.3z"/>
<path class="st13" d="M1791.8,27.4c-1.8,0-3.3-1.5-3.3-3.2c0-1.8,1.5-3.2,3.3-3.2s3.3,1.5,3.3,3.2
	C1795.1,26,1793.6,27.4,1791.8,27.4z M1791.8,22.3c-1,0-1.9,0.8-1.9,1.8s0.9,1.8,1.9,1.8s1.9-0.8,1.9-1.8
	C1793.7,23.2,1792.9,22.3,1791.8,22.3z"/>
<path class="st13" d="M1793,18.6h-14.3c-0.7,0-1.4-0.5-1.6-1.1l-5.4-15.2c-0.2-0.5-0.7-0.9-1.2-0.9h-2.1V0h2.1
	c1.1,0,2.2,0.7,2.5,1.8l0.7,2.1h22.5c0.2,0,0.3,0,0.5,0.1c0.4,0.1,0.8,0.4,1,0.8s0.3,0.9,0.1,1.3l-3.3,11.3
	C1794.5,18.1,1793.8,18.6,1793,18.6z M1774.3,5.3l4.2,11.7c0,0.1,0.2,0.2,0.3,0.2h14.3c0.1,0,0.3-0.1,0.3-0.2l3.3-11.3
	c0-0.1,0-0.2,0-0.2s-0.1-0.1-0.2-0.1L1774.3,5.3z"/>
<g class="st14">
	<g>
		<path id="SVGID_1_" class="st15" d="M1828.7,35.7c2.4,0,4.6-0.5,6.8-1.5c2.1-1,4-2.3,5.5-4.1c-0.8-1.5-2-2.6-3.4-3.5
			s-3.1-1.3-4.8-1.3c-0.2,0-0.4,0-0.6,0.1c-1.2,0.4-2.3,0.6-3.4,0.6s-2.2-0.2-3.4-0.6c-0.2-0.1-0.4-0.1-0.6-0.1
			c-1.8,0-3.4,0.4-4.8,1.3s-2.6,2.1-3.4,3.5c1.5,1.7,3.3,3.1,5.5,4.1C1824,35.2,1826.3,35.7,1828.7,35.7z M1828.7,7.8
			c-2,0-3.7,0.7-5.2,2.1c-1.4,1.4-2.2,3.1-2.2,5s0.7,3.6,2.2,5c1.4,1.4,3.2,2.1,5.2,2.1s3.7-0.7,5.2-2.1c1.4-1.4,2.2-3.1,2.2-5
			s-0.7-3.6-2.2-5C1832.4,8.5,1830.6,7.8,1828.7,7.8z M1828.7,0c3.7,0,7.2,0.9,10.3,2.7c3.2,1.8,5.7,4.3,7.5,7.3
			c1.9,3.1,2.8,6.4,2.8,10.1c0,3.6-0.9,7-2.8,10.1s-4.4,5.5-7.5,7.3c-3.2,1.8-6.6,2.7-10.3,2.7c-3.7,0-7.2-0.9-10.3-2.7
			c-3.2-1.8-5.7-4.3-7.5-7.3c-1.9-3.1-2.8-6.4-2.8-10.1c0-3.6,0.9-7,2.8-10.1s4.4-5.5,7.5-7.3C1821.5,0.9,1824.9,0,1828.7,0z"/>
	</g>
</g>
</svg>
